<?xml version="1.0" standalone="no"?>
<!DOCTYPE svg PUBLIC "-//W3C//DTD SVG 20010904//EN"
 "http://www.w3.org/TR/2001/REC-SVG-20010904/DTD/svg10.dtd">
<svg version="1.0" xmlns="http://www.w3.org/2000/svg"
 width="2298.000000pt" height="2298.000000pt" viewBox="0 0 2298.000000 2298.000000"
 preserveAspectRatio="xMidYMid meet">
<metadata>
Created by potrace 1.11, written by Peter Selinger 2001-2013
</metadata>
<g transform="translate(0.000000,2298.000000) scale(0.100000,-0.100000)"
fill="#000000" stroke="none">
<path d="M11560 22853 c-36 -71 -69 -127 -75 -127 -5 1 -80 5 -165 9 l-155 6
-48 -96 c-37 -75 -51 -95 -65 -91 -9 2 -90 7 -179 11 l-162 7 -61 -122 -61
-122 -107 6 c-59 4 -147 9 -197 12 l-90 6 -72 -146 c-40 -80 -73 -158 -73
-172 0 -15 -24 -77 -54 -138 -53 -109 -96 -222 -96 -250 0 -8 -4 -17 -9 -20
-7 -4 -218 68 -228 78 -1 1 16 30 39 64 22 34 39 64 37 66 -6 6 -1790 287
-1800 284 -5 -2 235 -115 532 -253 297 -137 542 -252 545 -256 2 -3 -26 -46
-62 -94 -36 -47 -64 -88 -62 -89 1 -2 80 -22 173 -45 267 -65 664 -167 669
-172 5 -4 -816 -79 -821 -74 -2 1 4 39 12 85 8 46 14 84 12 85 -4 4 -2166
-410 -2162 -413 2 -2 296 -29 654 -61 358 -32 654 -60 657 -63 3 -4 -8 -72
-24 -152 -21 -106 -26 -146 -17 -146 16 0 1320 188 1360 196 17 4 27 3 24 0
-4 -4 -418 -189 -920 -411 -554 -246 -902 -405 -884 -404 17 0 332 35 700 78
369 43 672 76 674 75 2 -2 -22 -69 -53 -150 -32 -80 -56 -148 -54 -149 2 -2
228 81 503 185 275 104 500 188 502 187 1 -2 7 -36 13 -77 6 -41 20 -115 31
-164 11 -48 18 -91 15 -93 -17 -17 -636 -149 -949 -202 -932 -158 -1734 -218
-2692 -199 -725 14 -1415 88 -1975 213 -134 30 -588 148 -733 190 -47 14 -47
14 -61 -13 -8 -15 -172 -324 -365 -687 l-351 -660 138 -129 c532 -500 795
-811 1062 -1256 422 -704 672 -1478 751 -2325 17 -172 17 -722 1 -905 -53
-605 -160 -1033 -382 -1520 -90 -198 -225 -441 -480 -865 -508 -842 -702
-1244 -855 -1770 -124 -430 -174 -775 -182 -1266 -12 -707 67 -1294 257 -1924
130 -429 360 -940 581 -1291 22 -34 39 -64 39 -67 0 -3 -42 -25 -92 -50 -232
-114 -374 -254 -436 -431 -22 -62 -26 -95 -33 -271 -4 -110 -8 -616 -8 -1125
-1 -800 1 -934 14 -984 101 -388 623 -637 1608 -770 510 -69 1152 -108 2167
-131 1286 -29 1625 -44 1923 -86 230 -32 418 -95 447 -149 6 -11 10 -130 10
-287 0 -309 -5 -288 103 -382 197 -170 473 -262 989 -331 406 -54 928 -78
1319 -61 840 37 1352 131 1635 303 69 41 179 135 205 174 17 27 19 50 19 297
0 157 4 276 10 287 29 54 217 117 447 149 298 42 637 57 1923 86 1015 23 1657
62 2167 131 985 133 1507 382 1608 770 13 50 15 184 14 984 0 509 -4 1015 -8
1125 -7 176 -11 209 -33 271 -62 177 -204 317 -435 431 -51 25 -93 47 -93 50
0 3 24 44 53 91 474 771 753 1683 817 2667 13 204 13 674 0 830 -55 644 -211
1201 -505 1800 -119 242 -205 396 -480 855 -311 520 -344 579 -453 795 -298
595 -421 1083 -463 1840 -30 543 28 1115 168 1645 115 439 316 933 533 1310
112 196 306 480 446 655 128 160 392 433 676 701 l138 129 -351 660 c-193 363
-357 672 -365 687 -14 27 -14 27 -61 13 -344 -100 -791 -208 -1063 -255 -609
-105 -1191 -150 -1960 -151 -1081 0 -2067 111 -3125 352 -99 23 -181 42 -182
43 -1 1 27 103 63 226 35 124 74 268 85 320 12 52 23 98 25 101 2 4 532 -171
682 -226 9 -3 -17 -38 -72 -97 -47 -51 -86 -95 -86 -98 0 -6 1456 -410 1476
-410 14 0 521 496 514 502 -3 3 -248 72 -545 153 -297 82 -543 151 -547 154
-4 3 13 40 37 81 24 41 44 80 45 87 0 6 -19 16 -43 21 -24 5 -350 78 -725 163
l-682 154 0 123 0 123 403 -6 c221 -3 425 -8 452 -11 l50 -5 -3 -94 -3 -95 83
5 c46 3 238 10 428 15 190 5 398 13 464 16 l119 6 -8 -97 -7 -97 44 6 c23 3
324 20 668 37 406 21 629 36 637 43 16 15 373 590 369 594 -2 1 -200 -7 -439
-20 -240 -12 -439 -19 -443 -16 -3 4 1 46 9 95 8 48 14 89 13 90 0 0 -269 -23
-596 -52 -327 -29 -596 -52 -598 -50 -2 2 17 46 42 99 24 53 41 96 36 96 -5 0
-365 -27 -802 -60 -436 -34 -804 -59 -818 -58 -13 2 254 98 604 216 345 118
630 211 633 208 4 -3 1 -56 -6 -117 -6 -61 -10 -113 -8 -116 4 -3 1636 483
1643 490 6 6 154 690 151 694 -2 2 -267 -82 -588 -187 -321 -104 -588 -190
-593 -190 -5 0 -6 57 -2 145 4 80 5 145 2 145 -30 0 -691 -299 -1276 -577
-399 -189 -730 -347 -737 -349 -7 -4 -15 15 -23 53 -66 328 -120 470 -241 634
-134 182 -323 297 -571 347 l-47 9 -103 -133 c-65 -84 -105 -129 -110 -121 -4
7 -40 66 -81 132 -85 138 -64 128 -277 139 l-125 7 -65 -128z m262 39 l38 -7
-41 -73 -40 -73 -77 7 c-42 4 -78 8 -80 9 -2 2 13 35 32 74 l36 71 48 -1 c26
0 64 -3 84 -7z m152 -196 c31 -52 56 -100 56 -106 0 -10 -78 -120 -85 -120 -2
0 -27 40 -55 90 l-51 90 37 70 c20 38 38 70 40 70 1 0 28 -42 58 -94z m466 78
c128 -38 270 -129 345 -221 116 -142 172 -279 235 -574 84 -394 92 -436 97
-524 5 -86 4 -92 -20 -121 -35 -42 -122 -86 -242 -124 -55 -17 -120 -42 -145
-55 l-45 -23 30 -9 c17 -4 122 -8 234 -8 l204 0 -6 -205 c-7 -254 -43 -503
-105 -724 -8 -28 -34 -38 -1362 -507 -745 -262 -1358 -474 -1361 -471 -9 10
-81 216 -139 397 -53 167 -94 348 -108 476 l-8 75 86 34 c47 18 221 86 388
152 167 66 305 118 306 116 2 -1 36 -59 76 -128 39 -69 75 -128 78 -131 4 -4
93 -10 197 -13 l190 -7 83 167 83 166 164 -7 164 -7 68 136 67 135 144 3 143
3 94 182 93 182 -125 221 -126 221 1 67 c1 37 4 99 8 138 8 97 -8 148 -106
330 -44 82 -83 159 -86 172 -5 18 29 70 172 262 99 131 179 239 180 240 0 0
24 -7 54 -16z m-1002 -109 c2 -2 -18 -45 -43 -95 l-47 -93 -75 7 c-42 3 -89 6
-105 6 l-28 0 41 83 c23 45 45 87 50 92 7 9 197 9 207 0z m262 -439 c104 -182
188 -331 187 -332 -1 -1 -47 0 -102 3 l-101 6 -138 239 -139 240 44 89 c24 49
47 88 51 87 4 -2 93 -151 198 -332z m-712 269 c8 -3 -4 -38 -40 -111 l-53
-106 -74 6 c-41 3 -96 6 -123 6 l-49 0 58 108 57 109 106 -4 c58 -3 111 -6
118 -8z m276 -449 c107 -187 194 -341 192 -343 -2 -2 -55 -1 -118 3 l-115 7
-132 227 c-72 125 -131 233 -131 239 0 14 100 214 105 210 2 -2 91 -157 199
-343z m-841 208 l46 -7 -50 -98 -49 -99 -63 0 c-34 0 -85 3 -114 6 l-52 7 50
98 49 99 69 0 c37 0 89 -3 114 -6z m330 -484 c106 -184 189 -336 183 -338 -6
-1 -58 1 -115 5 l-104 8 -144 251 -144 251 51 104 c51 100 53 102 66 79 7 -14
100 -176 207 -360z m-584 -128 c45 -100 81 -185 81 -187 0 -2 -62 17 -137 43
-155 54 -156 55 -132 141 15 57 55 156 76 188 20 30 10 46 112 -185z m1713 82
l-47 -95 -90 7 c-49 3 -91 8 -93 9 -2 2 16 41 40 89 l42 86 98 0 98 0 -48 -96z
m271 -284 l153 -265 -82 -3 c-44 -1 -92 2 -105 7 -17 6 -53 60 -123 182 l-98
172 43 89 c24 48 47 87 51 86 4 -2 77 -122 161 -268z m-633 134 c0 -2 -24 -49
-52 -104 l-53 -100 -45 0 c-25 0 -75 3 -112 6 l-67 7 46 91 c25 50 49 96 53
101 8 10 230 9 230 -1z m254 -411 c86 -150 156 -274 156 -277 0 -8 -189 -7
-215 0 -13 4 -55 67 -120 180 -55 96 -101 181 -103 189 -2 7 20 59 48 115 46
92 53 101 64 84 7 -11 83 -141 170 -291z m-817 51 l-52 -106 -59 6 c-32 3 -82
6 -111 6 l-52 0 51 100 51 100 112 0 113 0 -53 -106z m308 -332 l154 -267 -82
-3 c-143 -5 -130 -15 -243 180 -54 95 -100 178 -102 184 -3 12 55 135 86 182
14 21 16 22 25 7 5 -9 78 -136 162 -283z m1000 96 l-54 -103 -73 4 c-40 1 -74
4 -76 6 -2 1 18 46 45 99 l48 96 81 0 82 0 -53 -102z m-1636 -179 c13 -22 21
-42 20 -43 -22 -20 -677 -232 -686 -222 -2 2 -7 51 -10 109 -5 97 -4 105 13
111 35 10 208 35 364 51 85 8 178 19 205 24 28 5 55 9 61 10 6 0 21 -17 33
-40z m1231 -24 c0 -3 -19 -44 -42 -91 l-43 -86 -65 6 c-36 3 -79 6 -96 6 l-31
0 44 85 44 85 95 0 c51 0 94 -2 94 -5z m-2060 -129 c0 -41 2 -81 5 -89 5 -10
-23 -22 -112 -49 l-118 -35 -8 104 c-5 58 -7 107 -5 108 4 4 184 32 216 34 21
1 22 -3 22 -73z m1568 -141 c2 -2 -21 -48 -50 -104 l-53 -101 -113 0 -112 0
55 110 55 110 108 -6 c59 -4 108 -8 110 -9z m1487 -902 c-7 -27 -30 -109 -51
-183 -20 -74 -41 -139 -45 -144 -5 -6 -536 -193 -1181 -417 l-1173 -407 -7 37
c-4 20 -7 97 -7 172 l-1 136 763 264 c419 145 971 336 1227 425 256 89 470
162 477 163 9 1 9 -11 -2 -46z m-146 -935 c46 -553 175 -1003 393 -1366 l49
-82 -33 -43 c-159 -202 -368 -373 -592 -482 -159 -77 -258 -108 -457 -140
l-36 -5 -7 202 c-10 305 -38 445 -117 598 -97 187 -231 289 -394 298 -74 4
-87 1 -155 -27 -141 -60 -213 -136 -271 -286 -58 -150 -107 -372 -125 -564
l-7 -74 -71 7 c-84 7 -156 28 -291 86 -238 101 -411 204 -477 284 l-29 35 34
68 c136 270 229 556 244 750 l6 71 596 208 c328 115 848 297 1156 405 308 108
563 197 566 198 3 1 11 -63 18 -141z m4081 -1402 c0 -2 -25 -70 -56 -152 -215
-573 -330 -1073 -378 -1649 -26 -308 -41 -917 -27 -1117 46 -672 193 -1376
411 -1963 22 -59 40 -109 40 -111 0 -2 -579 -4 -1286 -4 l-1287 0 -106 92
c-462 402 -1287 1222 -1685 1676 l-116 132 2 1136 3 1136 109 39 c328 115 636
346 858 643 64 85 66 90 51 112 l-15 24 488 3 c873 4 2994 7 2994 3z m-7350
-1600 c-8 -8 -105 -89 -215 -180 l-200 -165 -739 -1 c-461 0 -736 4 -730 9 5
6 124 87 264 180 l254 171 690 0 c597 0 688 -2 676 -14z m131 -280 c7 -14 9
-35 6 -48 -4 -13 -90 -98 -209 -203 -259 -230 -243 -218 -244 -191 0 11 -4 35
-8 52 -7 31 -4 35 210 223 120 105 222 191 226 191 5 0 13 -11 19 -24z m-34
-271 c33 -22 49 -60 37 -89 -5 -13 -99 -103 -209 -201 -273 -243 -250 -224
-242 -201 11 28 -11 93 -43 129 l-28 33 196 177 c185 166 199 176 231 172 18
-2 44 -11 58 -20z m-1428 -100 c55 -28 58 -101 8 -139 -26 -19 -44 -21 -235
-24 -263 -4 -302 6 -318 86 -5 26 -1 36 24 62 l30 30 232 0 c184 0 237 -3 259
-15z m184 -5 c-3 -11 -9 -20 -13 -20 -4 0 -10 9 -13 20 -4 15 0 20 13 20 13 0
17 -5 13 -20z m678 -9 c37 -38 37 -72 0 -113 l-29 -33 -198 -3 c-232 -4 -278
1 -310 33 -27 27 -32 81 -11 107 27 34 51 37 285 38 l234 0 29 -29z m-637
-186 l25 -25 -25 -25 c-14 -14 -31 -38 -38 -55 l-12 -30 -36 55 -36 55 36 55
36 55 12 -30 c7 -17 24 -41 38 -55z m1221 -27 c26 -30 29 -45 19 -72 -5 -13
-133 -132 -414 -383 l-35 -31 -1 37 c-1 40 -24 91 -54 121 -19 19 -15 22 183
198 l201 179 38 -10 c22 -5 49 -22 63 -39z m-1438 -84 c33 -25 43 -58 30 -97
-17 -52 -43 -57 -296 -57 -227 0 -230 0 -257 24 -32 27 -38 82 -14 112 34 39
66 44 292 41 202 -2 218 -3 245 -23z m854 -12 c37 -41 37 -75 0 -113 l-29 -29
-232 0 c-234 0 -260 3 -287 39 -17 22 -16 72 2 99 25 35 68 41 298 39 l219 -2
29 -33z m-681 -117 c0 -8 16 -32 35 -53 l35 -39 -24 -22 c-14 -13 -30 -36 -36
-52 -15 -35 -26 -37 -34 -6 -3 12 -19 36 -35 51 l-30 29 34 39 c19 21 35 45
35 53 0 8 5 15 10 15 6 0 10 -7 10 -15z m1245 -84 c34 -19 51 -57 41 -92 -4
-14 -95 -100 -224 -211 l-217 -187 -13 47 c-8 26 -27 64 -44 85 -16 21 -28 40
-27 41 2 2 91 81 198 175 182 162 195 172 225 166 17 -4 44 -15 61 -24z
m-1432 -83 c54 -28 65 -98 21 -139 -25 -24 -29 -24 -242 -27 -251 -4 -285 2
-309 53 -14 28 -14 38 -3 65 23 55 42 59 288 60 151 0 230 -4 245 -12z m854
-7 c60 -37 49 -126 -18 -150 -20 -7 -115 -11 -244 -11 -204 0 -213 1 -246 23
-28 19 -35 30 -37 64 -3 35 1 44 28 67 l32 26 226 0 c206 0 230 -2 259 -19z
m-614 -207 l24 -19 -38 -44 c-22 -24 -39 -50 -39 -57 0 -8 -4 -14 -10 -14 -5
0 -10 7 -10 15 0 8 -16 33 -37 55 l-36 41 25 27 c14 15 33 42 43 61 l17 34 18
-40 c10 -22 29 -49 43 -59z m1286 -66 l0 -143 -235 -210 c-130 -115 -255 -227
-280 -248 l-44 -39 1 149 0 148 272 242 c150 134 275 243 280 243 4 0 7 -64 6
-142z m-1520 -43 c55 -28 58 -101 8 -139 -26 -19 -44 -21 -235 -24 -218 -4
-265 2 -297 38 -29 32 -25 87 9 116 27 24 30 24 257 24 183 0 236 -3 258 -15z
m854 -5 c31 -24 42 -64 27 -99 -21 -51 -39 -56 -250 -59 -228 -4 -274 1 -306
33 -26 27 -32 79 -11 106 27 35 50 38 283 39 216 0 233 -1 257 -20z m-629
-195 l25 -25 -76 0 -76 0 20 23 c11 12 28 37 38 56 l17 35 14 -32 c7 -18 24
-43 38 -57z m636 -275 l0 -160 -740 0 -740 0 0 160 0 160 740 0 740 0 0 -160z
m-77 -2957 c258 -225 486 -441 883 -838 417 -417 585 -592 802 -838 l112 -128
-2 -1487 -3 -1487 -2574 -3 c-1416 -1 -2579 2 -2583 6 -12 12 -172 512 -233
727 -114 404 -153 654 -176 1142 -14 288 -6 761 16 968 55 523 180 1100 392
1813 l66 222 1594 0 1595 0 111 -97z m6187 -1818 c674 -361 1227 -659 1230
-662 6 -6 -45 -50 -102 -89 l-37 -26 -842 456 c-463 251 -843 455 -844 454 -2
-2 226 -322 506 -713 280 -390 509 -712 509 -715 -1 -13 -142 -111 -149 -104
-5 5 -360 478 -790 1052 -669 892 -776 1040 -743 1023 21 -11 589 -315 1262
-676z m-1570 105 c-27 -206 -49 -376 -49 -378 -1 -2 -16 0 -33 3 -46 10 -141
62 -171 93 l-26 27 161 318 c88 175 162 317 163 315 2 -2 -19 -172 -45 -378z
m199 10 l109 -345 -25 -21 c-29 -25 -112 -54 -153 -54 l-27 0 -7 268 c-3 147
-8 323 -11 392 -3 69 -3 121 0 115 3 -5 54 -165 114 -355z m1729 -609 c342
-200 619 -367 617 -372 -9 -13 -395 -309 -404 -309 -5 0 -199 237 -431 526
-232 290 -418 525 -413 523 5 -2 289 -168 631 -368z m981 -1836 c105 -336 191
-616 191 -623 0 -9 -47 -12 -188 -12 l-189 0 -6 428 c-8 485 -9 827 -3 821 2
-2 90 -279 195 -614z m311 -65 c194 -300 355 -551 357 -557 4 -10 -31 -13
-156 -13 l-162 0 -13 33 c-8 17 -81 221 -164 452 -83 231 -169 472 -192 535
-23 63 -37 111 -32 105 5 -5 168 -255 362 -555z m-636 -20 c-14 -289 -27 -531
-29 -537 -3 -10 -43 -13 -155 -13 l-151 0 6 23 c16 54 350 1056 352 1054 1 -1
-10 -239 -23 -527z m-11440 -1400 c80 -12 144 -38 174 -71 l22 -23 0 -623 0
-623 -22 5 c-13 2 -76 14 -141 25 -345 61 -628 142 -866 249 -129 58 -227 120
-355 225 l-96 79 0 82 c0 161 28 240 124 342 105 113 250 194 463 258 236 72
512 101 697 75z m14153 -20 c312 -57 552 -166 689 -313 96 -102 124 -181 124
-342 l0 -82 -96 -79 c-128 -105 -226 -167 -355 -225 -238 -107 -521 -188 -866
-249 -65 -11 -128 -23 -140 -25 l-23 -5 0 623 0 623 22 23 c29 31 95 60 165
71 91 14 353 4 480 -20z m-15264 -1091 c261 -169 695 -306 1231 -390 637 -99
1281 -134 3011 -164 1159 -20 1696 -76 1948 -202 62 -31 126 -89 144 -130 15
-37 18 -159 4 -167 -5 -4 -49 -18 -98 -32 -256 -73 -388 -191 -422 -378 -7
-38 -11 -247 -11 -583 0 -412 -3 -523 -12 -523 -7 0 -128 13 -268 30 -737 85
-1247 117 -2645 170 -1045 40 -1274 54 -1675 106 -572 73 -982 209 -1282 424
l-93 67 -3 953 -2 952 41 -37 c23 -21 83 -64 132 -96z m16075 -825 l-3 -947
-93 -67 c-300 -215 -710 -351 -1282 -424 -402 -52 -634 -67 -1675 -106 -1394
-52 -1908 -85 -2645 -170 -140 -17 -261 -30 -267 -30 -10 0 -13 111 -13 523 0
336 -4 545 -11 583 -34 187 -166 305 -422 378 -49 14 -93 28 -98 32 -14 8 -11
130 4 167 18 41 82 99 144 130 252 126 789 182 1948 202 637 11 1232 25 1495
35 1252 49 2015 172 2537 407 121 54 308 169 347 212 11 11 23 21 28 21 4 0 7
-426 6 -946z m-9696 -551 c-2 -104 -5 -189 -6 -190 -5 -6 -177 50 -255 82
-101 43 -105 49 -71 114 19 38 70 85 120 111 27 15 188 69 206 70 7 0 9 -57 6
-187z m3240 161 c135 -43 204 -87 238 -155 34 -65 30 -71 -71 -114 -78 -33
-250 -88 -255 -82 -6 6 -8 377 -2 377 4 0 44 -12 90 -26z m-3595 -404 c191
-122 702 -233 1333 -290 348 -32 590 -39 835 -25 817 48 1455 167 1688 315 26
16 50 30 52 30 3 0 5 -395 5 -877 l-1 -878 -47 -38 c-202 -161 -609 -267
-1237 -321 -466 -41 -934 -41 -1400 0 -628 54 -1035 160 -1237 321 l-47 38 -1
878 c0 482 2 877 5 877 2 0 26 -14 52 -30z"/>
<path d="M12797 22203 c-21 -15 -71 -68 -112 -118 -57 -72 -103 -115 -210
-196 -164 -124 -165 -125 -165 -131 0 -3 35 -13 78 -22 75 -17 78 -17 122 2
115 50 231 166 290 291 25 52 59 162 60 194 0 14 -26 6 -63 -20z"/>
<path d="M14547 17129 c-18 -29 -42 -279 -32 -342 9 -56 35 -137 44 -137 13 0
29 44 41 108 7 42 7 99 0 193 -5 74 -10 141 -10 150 0 8 -6 24 -14 34 -13 18
-14 17 -29 -6z"/>
<path d="M13270 16584 c0 -39 13 -56 152 -216 96 -109 147 -159 203 -196 69
-47 141 -80 151 -70 8 9 -25 88 -55 131 -16 23 -58 69 -93 103 -86 83 -279
248 -305 262 -36 19 -53 15 -53 -14z"/>
<path d="M15717 16578 c-86 -62 -312 -266 -349 -315 -37 -49 -77 -127 -78
-150 0 -7 5 -13 11 -13 27 0 138 64 192 110 67 57 285 304 298 338 26 68 -4
80 -74 30z"/>
<path d="M14482 16245 c-31 -23 -66 -85 -121 -223 -63 -155 -92 -198 -258
-377 -173 -186 -207 -229 -248 -318 -51 -112 -70 -210 -69 -367 1 -167 16
-220 143 -516 139 -326 178 -471 168 -638 -4 -82 -9 -96 -56 -192 -59 -118
-94 -153 -225 -220 l-76 -39 1 -55 c0 -30 3 -87 7 -127 7 -61 12 -77 36 -102
72 -75 362 -147 671 -166 156 -10 483 32 640 82 75 23 162 72 181 101 12 18
18 57 21 146 l6 121 -39 18 c-136 65 -209 129 -260 230 -104 204 -80 395 106
831 56 132 113 282 126 334 55 215 16 476 -95 643 -27 41 -113 142 -191 224
-168 178 -213 243 -270 390 -52 136 -62 156 -101 200 -34 38 -62 44 -97 20z
m59 -142 c6 -16 23 -75 38 -133 15 -58 35 -122 45 -142 10 -20 79 -108 154
-195 173 -200 231 -279 284 -384 l42 -84 4 -150 c5 -201 -13 -283 -117 -542
-111 -278 -181 -509 -212 -699 -9 -57 -19 -85 -35 -101 -37 -37 -51 -30 -58
30 -17 134 -50 309 -73 380 l-24 79 60 91 c96 146 178 323 262 565 54 155 56
229 12 325 -75 160 -222 228 -358 168 l-46 -20 -39 20 c-27 14 -59 21 -104 21
-78 0 -128 -25 -195 -97 -59 -64 -84 -124 -88 -215 -4 -69 -1 -86 45 -220 88
-255 192 -474 285 -598 l25 -33 -24 -82 c-13 -45 -36 -156 -50 -247 -32 -201
-28 -190 -53 -183 -32 8 -38 21 -61 138 -48 240 -102 414 -225 720 -87 217
-109 324 -102 507 l4 137 47 93 c55 111 100 171 284 385 151 175 165 199 202
358 31 132 50 162 71 108z m-98 -910 c4 -3 0 -14 -9 -24 -39 -43 -55 -146 -34
-221 6 -21 26 -53 44 -73 27 -29 41 -35 73 -35 46 0 85 26 110 73 26 49 24
179 -3 235 l-22 42 24 6 c69 18 152 -36 173 -111 14 -51 14 -179 0 -230 -28
-101 -263 -570 -280 -559 -18 10 -121 207 -195 369 -74 160 -78 175 -82 254
-7 134 26 232 91 268 23 13 99 17 110 6z m104 -74 c16 -30 17 -120 1 -154 -17
-38 -45 -32 -57 13 -15 53 -13 99 5 138 18 39 33 39 51 3z m6 -1396 l14 -81
-25 -5 c-35 -7 -62 3 -62 22 0 27 18 126 31 172 l12 44 8 -35 c5 -19 15 -72
22 -117z"/>
<path d="M12860 15844 c0 -7 10 -24 23 -38 29 -33 318 -199 410 -236 70 -28
194 -56 204 -46 9 9 -82 92 -142 128 -74 45 -418 194 -462 200 -23 3 -33 0
-33 -8z"/>
<path d="M16165 15849 c-44 -7 -358 -143 -442 -190 -55 -32 -153 -115 -153
-130 0 -24 174 23 274 73 137 68 342 197 355 222 8 14 12 27 10 29 -2 2 -22 0
-44 -4z"/>
<path d="M13140 14750 c-25 -5 -90 -14 -145 -20 -103 -12 -168 -34 -162 -54 2
-6 19 -19 38 -28 30 -15 66 -18 230 -18 205 -1 265 9 358 59 l34 18 -24 16
c-52 34 -212 47 -329 27z"/>
<path d="M15642 14741 c-65 -22 -70 -28 -46 -46 70 -53 195 -72 430 -65 141 4
165 7 183 24 12 11 21 23 21 27 0 16 -56 37 -120 44 -36 4 -108 13 -160 21
-131 19 -243 17 -308 -5z"/>
<path d="M13562 14059 c-71 -14 -141 -51 -305 -163 -151 -103 -197 -144 -197
-173 0 -15 39 -33 73 -33 27 0 308 117 374 156 60 34 153 128 175 174 17 34
17 35 -5 42 -29 8 -63 8 -115 -3z"/>
<path d="M15388 14064 c-24 -7 -23 -12 10 -65 38 -60 130 -140 199 -174 101
-49 316 -135 339 -135 25 0 74 19 74 29 0 27 -54 80 -137 135 -54 36 -132 88
-173 116 -41 27 -97 59 -126 69 -53 20 -156 34 -186 25z"/>
<path d="M7836 10138 c-13 -18 -44 -70 -69 -116 l-44 -82 -94 -46 c-124 -60
-188 -109 -221 -170 -35 -64 -62 -200 -56 -278 12 -142 117 -258 296 -324 l73
-27 -6 -49 c-9 -72 -28 -110 -71 -142 -87 -67 -149 -133 -192 -206 l-45 -78
-133 0 -132 0 -22 64 c-43 130 -101 176 -220 176 -36 0 -70 -4 -77 -8 -6 -4
-28 -51 -48 -104 -21 -54 -43 -98 -49 -98 -22 0 -142 -62 -168 -87 -25 -24
-26 -28 -13 -52 29 -55 83 -93 175 -122 65 -20 64 -6 19 -230 -32 -161 -81
-326 -134 -450 -52 -121 -46 -154 40 -205 124 -72 332 -81 455 -19 53 27 130
106 130 134 0 11 -9 41 -21 68 -28 66 -75 253 -93 370 -16 100 -38 315 -33
318 1 1 95 5 210 9 l207 7 0 -620 0 -621 -42 -21 c-162 -83 -308 -215 -308
-279 0 -60 95 -151 220 -211 133 -64 274 -96 466 -105 269 -14 492 43 661 168
61 44 113 111 113 143 0 62 -94 155 -263 260 l-97 60 0 636 c0 726 -2 705 79
793 65 70 83 103 85 148 1 35 -5 45 -50 86 -28 26 -78 69 -112 95 -72 56 -112
110 -119 164 l-5 38 66 33 c37 17 71 32 76 32 5 0 76 -29 156 -65 81 -36 150
-65 155 -65 23 0 85 164 115 300 21 99 22 284 0 373 -29 122 -94 225 -166 262
-26 14 -36 11 -171 -44 l-143 -59 -56 76 c-135 184 -262 250 -324 170z"/>
<path d="M3822 3388 c-63 -251 -252 -1082 -249 -1091 4 -11 158 -67 183 -67 6
0 30 83 54 185 l44 186 42 34 43 35 19 -52 c10 -29 52 -147 92 -263 40 -115
74 -211 75 -213 5 -7 236 -64 240 -60 4 4 -184 542 -230 659 -4 12 59 73 244
234 138 121 249 220 247 222 -2 2 -54 12 -117 23 -99 17 -116 18 -134 5 -11
-7 -119 -99 -240 -203 -121 -104 -221 -189 -223 -187 -1 1 25 118 58 259 33
142 58 261 55 266 -3 5 -42 21 -88 36 -45 15 -87 29 -93 31 -6 2 -16 -15 -22
-39z"/>
<path d="M5038 3038 c-132 -244 -509 -990 -504 -995 5 -6 185 -31 226 -33 10
0 35 40 70 113 30 61 56 114 57 116 6 9 426 -44 437 -55 7 -6 23 -62 36 -123
13 -62 27 -114 32 -117 13 -8 249 -37 255 -31 2 3 -62 268 -144 590 l-148 585
-95 11 c-52 7 -114 14 -136 17 l-41 6 -45 -84z m199 -434 l50 -226 -36 5 c-20
3 -88 11 -151 18 -63 7 -117 14 -119 16 -6 4 191 413 199 413 3 0 29 -102 57
-226z"/>
<path d="M5708 2978 c-3 -51 -3 -95 -1 -98 2 -2 38 -7 79 -11 41 -3 77 -9 81
-12 3 -4 -6 -215 -21 -468 -15 -254 -25 -464 -21 -467 5 -6 238 -23 243 -18 1
2 15 213 30 469 15 256 30 468 32 470 3 2 40 2 83 -1 l77 -4 0 -37 c0 -20 -12
-231 -26 -469 -14 -238 -24 -435 -23 -437 2 -2 58 -6 125 -10 l121 -7 6 68 c4
38 16 240 27 449 12 209 24 391 26 404 5 23 7 24 83 18 l78 -5 7 91 c4 49 3
93 -1 97 -4 4 -107 13 -228 19 -314 17 -661 40 -721 47 l-51 6 -5 -94z"/>
<path d="M6887 2908 c-3 -64 -1 -95 7 -100 6 -4 43 -8 83 -8 39 0 73 -3 75 -7
2 -5 -1 -165 -8 -358 -7 -192 -13 -402 -13 -466 l-1 -116 122 -6 c67 -4 122
-6 124 -5 1 2 7 165 13 363 6 198 14 411 17 474 l6 114 81 -7 c45 -4 82 -8 82
-9 1 -1 -5 -210 -13 -465 -8 -254 -12 -466 -8 -469 4 -4 60 -9 126 -11 l120
-4 0 43 c0 32 27 852 30 899 0 3 35 4 78 2 l79 -4 6 93 c3 51 4 95 2 97 -2 2
-192 10 -422 18 -230 7 -454 16 -499 19 l-81 6 -6 -93z"/>
<path d="M8204 2375 c-130 -305 -236 -557 -233 -559 2 -2 59 -6 126 -9 l121
-7 48 121 48 121 196 -6 c107 -4 207 -9 222 -12 25 -5 30 -14 53 -92 14 -48
32 -103 38 -122 l13 -35 129 -6 c72 -4 131 -6 132 -5 1 1 -83 260 -186 576
l-188 575 -69 6 c-38 4 -101 7 -140 8 l-72 1 -238 -555z m425 75 c34 -113 64
-214 68 -224 5 -18 0 -19 -148 -12 -85 4 -155 8 -156 10 -1 1 36 100 84 219
48 119 88 216 89 214 1 -1 29 -94 63 -207z"/>
<path d="M18602 3175 c-57 -12 -107 -27 -111 -31 -10 -11 -174 -1104 -167
-1111 3 -4 214 36 224 42 1 1 9 55 18 121 8 65 16 119 17 120 4 4 382 84 394
84 6 0 39 -45 73 -100 33 -55 66 -100 73 -100 37 2 222 48 222 56 0 5 -135
220 -300 476 -234 365 -304 467 -320 467 -11 0 -66 -11 -123 -24z m176 -432
c61 -100 108 -184 104 -186 -17 -10 -264 -58 -269 -53 -4 3 4 88 16 189 22
185 31 241 36 235 1 -2 53 -85 113 -185z"/>
<path d="M17690 3085 c-179 -13 -382 -26 -452 -30 l-128 -7 0 -42 c0 -22 3
-65 6 -93 l7 -53 83 0 82 0 6 -37 c3 -21 17 -229 32 -463 15 -234 30 -428 33
-432 8 -9 225 2 239 11 5 4 -4 197 -22 472 l-31 467 50 6 c104 12 112 10 118
-31 3 -21 18 -233 34 -471 l27 -434 121 7 c66 4 123 10 126 14 3 3 -8 215 -25
471 l-31 465 77 9 78 8 0 78 c0 43 -3 85 -6 94 -8 20 -8 20 -424 -9z"/>
<path d="M16472 3022 l-474 -15 6 -30 c3 -16 6 -58 6 -93 l0 -64 84 0 84 0 6
-92 c3 -51 11 -264 17 -473 6 -209 12 -381 14 -383 1 -1 58 0 125 4 l123 7 -7
236 c-3 130 -9 343 -13 474 l-6 237 81 0 80 0 6 -62 c5 -59 26 -740 26 -835
l0 -43 127 0 126 0 -6 238 c-4 130 -10 344 -13 475 l-7 237 76 0 c42 0 79 4
82 10 3 5 3 50 -1 100 l-7 90 -31 -2 c-17 0 -244 -8 -504 -16z"/>
<path d="M15358 2963 l-68 -4 -34 -112 c-159 -511 -315 -1031 -311 -1035 2 -2
55 -1 118 3 l114 7 34 121 34 122 90 6 c50 4 142 9 207 12 l116 6 36 -92 c19
-51 40 -104 45 -119 10 -27 13 -28 78 -27 38 1 93 4 124 8 l56 6 -222 550
-223 550 -63 1 c-35 0 -94 -1 -131 -3z m156 -492 c43 -112 76 -204 74 -206 -2
-1 -68 -5 -147 -8 -111 -5 -142 -4 -139 6 3 6 31 107 64 224 32 117 62 207 65
200 4 -7 41 -104 83 -216z"/>
<path d="M14660 2926 l-125 -11 -176 -293 c-141 -233 -178 -288 -182 -270 -3
13 -13 123 -23 246 l-18 224 -58 -6 c-32 -3 -85 -9 -118 -12 l-61 -6 6 -57 c3
-31 24 -267 45 -525 21 -257 41 -470 43 -472 5 -6 218 14 225 20 2 3 -2 82
-10 175 l-13 170 31 42 c17 23 33 42 37 43 3 0 72 -91 154 -204 l149 -205 54
1 c95 2 230 15 230 23 0 4 -92 126 -205 271 -113 145 -203 270 -201 277 3 7
82 134 175 282 171 269 190 302 175 300 -5 -1 -65 -7 -134 -13z"/>
<path d="M10069 1668 c0 -12 -22 -250 -48 -528 -26 -278 -47 -506 -46 -508 3
-4 226 -24 230 -20 2 2 13 109 26 238 12 129 22 236 23 236 2 3 431 -38 435
-42 1 -1 -7 -107 -19 -235 -18 -184 -20 -233 -10 -239 17 -10 209 -24 218 -16
7 8 103 1027 98 1042 -4 9 -182 29 -223 25 -5 0 -16 -87 -25 -192 -10 -106
-20 -195 -23 -197 -7 -7 -418 29 -427 37 -4 3 1 93 10 199 10 106 16 195 13
197 -4 1 -40 6 -81 9 -41 4 -92 9 -112 12 -35 5 -38 4 -39 -18z"/>
<path d="M12353 1630 c-40 -3 -75 -9 -78 -12 -7 -7 -305 -1058 -305 -1076 0
-10 20 -11 93 -6 147 11 137 4 168 128 15 60 31 112 36 116 4 4 78 13 163 19
85 7 175 14 200 17 l45 6 49 -112 49 -112 93 7 c51 4 107 10 123 14 l31 6
-243 507 -242 507 -55 -1 c-30 0 -88 -4 -127 -8z m161 -455 c47 -104 84 -190
83 -191 -5 -5 -279 -25 -283 -21 -3 2 19 97 48 210 29 113 56 203 60 199 3 -4
45 -92 92 -197z"/>
<path d="M11220 1510 l0 -90 75 0 75 0 0 -445 0 -445 115 0 115 0 0 248 c0
137 3 337 7 445 l6 197 79 0 79 0 -3 88 -3 87 -272 3 -273 2 0 -90z"/>
</g>
</svg>
