<?xml version="1.0" encoding="UTF-8" standalone="no"?>
<!-- Created with Inkscape (http://www.inkscape.org/) -->

<svg
   xmlns:dc="http://purl.org/dc/elements/1.1/"
   xmlns:cc="http://creativecommons.org/ns#"
   xmlns:rdf="http://www.w3.org/1999/02/22-rdf-syntax-ns#"
   xmlns:svg="http://www.w3.org/2000/svg"
   xmlns="http://www.w3.org/2000/svg"
   xmlns:sodipodi="http://sodipodi.sourceforge.net/DTD/sodipodi-0.dtd"
   xmlns:inkscape="http://www.inkscape.org/namespaces/inkscape"
   width="1733.437"
   height="2297.9316"
   id="svg4125"
   version="1.1"
   inkscape:version="0.48.5 r10040"
   sodipodi:docname="khk_color_union.svg">
  <defs
     id="defs4127" />
  <sodipodi:namedview
     id="base"
     pagecolor="#ffffff"
     bordercolor="#666666"
     borderopacity="1.0"
     inkscape:pageopacity="0.0"
     inkscape:pageshadow="2"
     inkscape:zoom="0.24748737"
     inkscape:cx="812.47312"
     inkscape:cy="873.21793"
     inkscape:document-units="px"
     inkscape:current-layer="layer1"
     showgrid="false"
     inkscape:window-width="1200"
     inkscape:window-height="1881"
     inkscape:window-x="0"
     inkscape:window-y="0"
     inkscape:window-maximized="1"
     fit-margin-top="0"
     fit-margin-left="0"
     fit-margin-right="0"
     fit-margin-bottom="0" />
  <metadata
     id="metadata4130">
    <rdf:RDF>
      <cc:Work
         rdf:about="">
        <dc:format>image/svg+xml</dc:format>
        <dc:type
           rdf:resource="http://purl.org/dc/dcmitype/StillImage" />
      </cc:Work>
    </rdf:RDF>
  </metadata>
  <g
     inkscape:label="Layer 1"
     inkscape:groupmode="layer"
     id="layer1"
     transform="translate(491.7185,616.60362)">
    <path
       inkscape:connector-curvature="0"
       style="font-size:medium;font-style:normal;font-variant:normal;font-weight:normal;font-stretch:normal;text-indent:0;text-align:start;text-decoration:none;line-height:normal;letter-spacing:normal;word-spacing:normal;text-transform:none;direction:ltr;block-progression:tb;writing-mode:lr-tb;text-anchor:start;baseline-shift:baseline;color:#000000;fill:#000000;fill-opacity:1;fill-rule:nonzero;stroke:none;stroke-width:33.90000153;marker:none;visibility:visible;display:inline;overflow:visible;enable-background:accumulate;font-family:Sans;-inkscape-font-specification:Sans"
       d="m 388.0979,-616.60342 -13.00781,25.58203 -33.25,-1.8125 -8.875,18.86719 -36.18945,-1.91211 -12.33008,24.39453 -39.6875,-2.18945 c -4.23976,7.68075 -10.15526,21.16555 -14.22656,28.9375 -0.80088,1.41373 0.64999,4.56804 -0.14063,5.96875 -7.00521,12.41076 -13.4615,26.76275 -15.84961,38.39258 l -22.97656,-8.57617 8.45703,-13.32032 -184.42773,-29.14843 112.31445,51.84765 -13.89648,18.52149 c 32.12505,6.68719 56.084,15.03704 88.20898,21.72461 l -85.78125,7.46875 3.02148,-17.52735 -219.01172,41.69141 134.39454,11.87695 -6.2168,30.55274 c 0,0 94.62565,-13.683 141.9375,-20.53125 l -187.34961,82.85937 142.68945,-16.35156 -12.02734,30.96094 101.5,-38.34375 c 1.19573,11.69871 3.44418,23.04791 6.2793,34.10156 -98.17432,24.39428 -194.68905,36.24152 -282.5625,39.52148 -15.8013,0.5898 -31.29753,0.90919 -46.5,0.96875 -106.4173,0.41695 -197.1845,-11.58326 -258.375,-28.03125 l -41.5,-11.15625 -11.5625,-3.09375 -5.59375,10.5625 -20.125,37.96875 -22.46875,42.4375 -19.3125,36.40625 -5.375,10.125 8.375,7.84375 30.09375,28.1875 c 94.4943,88.482623 158.5,230.46441 158.5,376.5 0,140.34491 -38.94095,206.35691 -86.21875,284.40621 -24.33987,40.182 -51.79328,84.0779 -72.6875,136.9688 -1.26632,3.2055 -2.50285,6.446 -3.71875,9.7187 -17.63059,47.4541 -29.75,102.1008 -29.75,167.5 0,3.8537 0.0343,7.6823 0.0937,11.5 0.0506,3.2438 0.12533,6.4695 0.21875,9.6875 0.002,0.073 -0.002,0.1461 0,0.2188 0.0476,1.62 0.0978,3.2302 0.15625,4.8437 0.0837,2.3153 0.20646,4.6355 0.3125,6.9375 0.0187,0.4051 0.0119,0.8142 0.0312,1.2188 0.0174,0.3632 0.0446,0.7308 0.0625,1.0937 0.16289,3.2982 0.35376,6.5726 0.5625,9.8438 0.20583,3.2255 0.43719,6.4254 0.6875,9.625 0.0343,0.4377 0.0587,0.8752 0.0937,1.3125 0.0453,0.5644 0.0783,1.1239 0.125,1.6875 0.25941,3.1336 0.54157,6.266 0.84375,9.375 0.001,0.01 -10e-4,0.021 0,0.031 0.28037,2.8831 0.58918,5.7629 0.90625,8.625 0.0277,0.2496 0.0658,0.5005 0.0937,0.75 0.13799,1.2312 0.29271,2.4602 0.4375,3.6875 0.76357,6.4774 1.61029,12.91 2.5625,19.2812 0.43828,2.9326 0.89688,5.8396 1.375,8.75 0.0857,0.5217 0.16302,1.0416 0.25,1.5625 0.15207,0.9105 0.31277,1.8104 0.46875,2.7188 0.378,2.2025 0.75533,4.4039 1.15625,6.5937 0.13177,0.7194 0.27201,1.4383 0.40625,2.1563 0.50413,2.6977 1.02354,5.3837 1.5625,8.0625 0.0105,0.052 0.0207,0.1041 0.0312,0.1562 0.19135,0.9495 0.39802,1.8967 0.59375,2.8438 0.55028,2.6635 1.1027,5.3238 1.6875,7.9687 0.0989,0.4471 0.18139,0.8973 0.28125,1.3438 0.0396,0.1771 0.0852,0.3542 0.125,0.5312 0.67399,3.0016 1.37526,5.99092 2.09375,8.96882 0.0379,0.1571 0.087,0.3117 0.125,0.4687 1.55208,6.4092 3.21115,12.7611 4.96875,19.0625 0.11624,0.4166 0.22662,0.8339 0.34375,1.25 0.89814,3.1919 1.83046,6.3666 2.78125,9.5313 0.98978,3.2945 2.01581,6.5782 3.0625,9.8437 0.0864,0.2695 0.16324,0.5433 0.25,0.8125 0.96329,2.9898 1.95782,5.9718 2.96875,8.9375 1.05341,3.0904 2.11374,6.1853 3.21875,9.25 0.0493,0.1366 0.1069,0.2698 0.15625,0.4063 2.32148,6.4227 4.76507,12.7814 7.3125,19.0937 1.27436,3.1578 2.57556,6.3068 3.90625,9.4375 1.09481,2.5758 2.2109,5.1298 3.34375,7.6875 0.45727,1.0323 0.91155,2.0645 1.375,3.0938 1.16523,2.5885 2.35822,5.1485 3.5625,7.7187 0.0435,0.093 0.0814,0.1884 0.125,0.2813 1.41132,3.0078 2.84779,6.0168 4.3125,9 1.49407,3.0429 3.01302,6.0761 4.5625,9.0937 1.55459,3.0277 3.13978,6.0287 4.75,9.0313 1.60977,3.0018 3.24103,5.9914 4.90625,8.9687 1.54886,2.7691 3.12204,5.5331 4.71875,8.2813 0.0657,0.113 0.12175,0.2307 0.1875,0.3437 0.11767,0.2021 0.25707,0.3917 0.375,0.5938 1.65278,2.8325 3.32769,5.6581 5.03125,8.4687 1.77455,2.9278 3.57675,5.8456 5.40625,8.75 -9.2333,3.6881 -18.05385,8.1886 -26.03125,13.6875 -16.6406,11.4701 -30.53125,29.0763 -30.53125,51.1875 l 0,0.4688 c -10e-5,3.1824 -0.8125,27.4574 -0.8125,36.75 l 0,177.25 c 17.558,140.7123 560.18877,70.3547 615.03125,118.375 0.61069,0.771 1.16377,1.7699 1.625,3.125 l 0,48.3438 c 0,5.964 0.77374,7.4883 4.5625,11.5625 21.61902,23.1493 55.82554,31.29 95.15625,37.2812 39.33071,5.9911 82.16823,7.7675 114.15625,8.25 31.98802,-0.4825 74.82554,-2.2589 114.15625,-8.25 39.33075,-5.9912 73.53725,-14.1318 95.15625,-37.2812 3.7888,-4.0741 4.5625,-5.5986 4.5625,-11.5625 l 0,-48.3438 c 0.4612,-1.3551 1.0143,-2.354 1.625,-3.125 54.8425,-48.0203 597.4733,22.3373 615.0313,-118.375 l 0,-177.25 c 0,-9.2926 -0.8124,-33.5676 -0.8125,-36.75 l 0,-0.4688 c 0,-22.1111 -13.8906,-39.7174 -30.5312,-51.1875 -7.9774,-5.499 -16.798,-9.9993 -26.0313,-13.6875 1.8295,-2.9043 3.6317,-5.8222 5.4063,-8.75 1.7035,-2.8106 3.3784,-5.6362 5.0312,-8.4687 0.069,-0.1175 0.1503,-0.2263 0.2188,-0.3438 0.1154,-0.1981 0.2286,-0.3955 0.3437,-0.5937 1.5967,-2.7482 3.1699,-5.5123 4.7188,-8.2813 1.6652,-2.9774 3.2964,-5.9669 4.9062,-8.9687 1.6102,-3.0026 3.1954,-6.0036 4.75,-9.0313 1.5495,-3.0176 3.0684,-6.0508 4.5625,-9.0937 1.4647,-2.9832 2.9012,-5.9922 4.3125,-9 0.03,-0.063 0.064,-0.1243 0.094,-0.1875 0.083,-0.1773 0.1671,-0.3539 0.25,-0.5313 1.3557,-2.8999 2.694,-5.7955 4,-8.7187 0.4224,-0.9452 0.8328,-1.8961 1.25,-2.8438 0.9526,-2.1643 1.8871,-4.3227 2.8125,-6.5 1.3307,-3.1307 2.6318,-6.2797 3.9062,-9.4375 1.0143,-2.5133 2.0214,-5.0317 3,-7.5625 0.2489,-0.6439 0.5033,-1.2924 0.75,-1.9375 0.1104,-0.2888 0.2025,-0.5859 0.3125,-0.875 1.1037,-2.9007 2.1932,-5.7949 3.25,-8.7187 0.049,-0.1364 0.1071,-0.2699 0.1563,-0.4063 0.8221,-2.2799 1.6126,-4.5808 2.4062,-6.875 0.6011,-1.7371 1.1966,-3.4734 1.7813,-5.2187 0.6778,-2.0239 1.3443,-4.0587 2,-6.0938 0.5853,-1.8158 1.151,-3.644 1.7187,-5.4687 0.068,-0.22 0.1506,-0.4361 0.2188,-0.6563 0.055,-0.176 0.1018,-0.3551 0.1562,-0.5312 0.5775,-1.8712 1.1598,-3.7443 1.7188,-5.625 0.038,-0.1261 0.088,-0.2489 0.125,-0.375 0.7318,-2.4691 1.4252,-4.952 2.125,-7.4375 0.047,-0.1681 0.109,-0.3318 0.1562,-0.5 0.3822,-1.3618 0.7523,-2.727 1.125,-4.0938 0.5358,-1.966 1.0779,-3.9298 1.5938,-5.9062 0.03,-0.1145 0.066,-0.2293 0.096,-0.3438 0.8174,-3.1394 1.6078,-6.3028 2.375,-9.4687 0.025,-0.1034 0.035,-0.209 0.06,-0.3125 0.02,-0.083 0.043,-0.1666 0.062,-0.25 0.7185,-2.9779 1.4198,-5.96722 2.0938,-8.96882 0.072,-0.3221 0.1469,-0.6463 0.2187,-0.9687 0.067,-0.3007 0.121,-0.6054 0.1875,-0.9063 0.5848,-2.6449 1.1371,-5.3052 1.6875,-7.9687 0.097,-0.4705 0.2164,-0.9352 0.3125,-1.4063 0.1077,-0.5278 0.2061,-1.0652 0.3125,-1.5937 0.539,-2.6788 1.0583,-5.3648 1.5625,-8.0625 0.047,-0.2512 0.1096,-0.4987 0.1563,-0.75 0.2564,-1.3815 0.5026,-2.7697 0.75,-4.1563 0.3733,-2.094 0.7413,-4.2069 1.0937,-6.3125 0.014,-0.083 0.017,-0.1673 0.031,-0.25 0.2262,-1.3548 0.4386,-2.7028 0.6561,-4.0625 0.1335,-0.834 0.2761,-1.6642 0.4064,-2.5 0.031,-0.1974 0.063,-0.3961 0.094,-0.5937 0.2978,-1.9228 0.5945,-3.8489 0.875,-5.7813 0.012,-0.083 0.019,-0.1671 0.031,-0.25 0.3753,-2.5952 0.7493,-5.1997 1.0936,-7.8125 0.2432,-1.8443 0.4599,-3.7093 0.6875,-5.5625 0.078,-0.6352 0.1428,-1.2699 0.2189,-1.9062 0.1918,-1.6012 0.3823,-3.2047 0.5625,-4.8125 0.028,-0.2495 0.066,-0.5004 0.094,-0.75 0.3171,-2.8621 0.6259,-5.7419 0.9063,-8.625 10e-4,-0.01 0,-0.021 0,-0.031 0.3021,-3.109 0.5843,-6.2414 0.8437,-9.375 0.043,-0.52 0.083,-1.0418 0.125,-1.5625 l 0,-0.125 c 0.064,-0.8021 0.126,-1.6026 0.1875,-2.4063 0.1563,-2.0404 0.2993,-4.074 0.4375,-6.125 0.1185,-1.7563 0.2386,-3.5171 0.3438,-5.2812 0.2764,-4.6364 0.5028,-9.3094 0.6875,-14 0.092,-2.3505 0.1806,-4.6983 0.25,-7.0625 l 0,-0.2188 c 0.093,-3.218 0.1682,-6.4437 0.2187,-9.6875 0.059,-3.8177 0.094,-7.6463 0.094,-11.5 0,-6.7654 -0.1232,-13.4296 -0.375,-19.9687 -0.1678,-4.3594 -0.382,-8.6445 -0.6563,-12.9063 -0.1372,-2.1308 -0.3057,-4.2681 -0.4687,-6.375 -0.326,-4.2138 -0.6989,-8.3803 -1.125,-12.5 -0.8521,-8.2393 -1.8987,-16.2794 -3.125,-24.1562 -0.6132,-3.9384 -1.2686,-7.8362 -1.9688,-11.6875 -0.7003,-3.8513 -1.4356,-7.671 -2.2187,-11.4375 -0.783,-3.7666 -1.6073,-7.4721 -2.4688,-11.1563 -1.2924,-5.5261 -2.6684,-10.9651 -4.125,-16.3125 -0.9711,-3.5648 -1.9925,-7.1054 -3.0312,-10.5937 -1.5581,-5.2325 -3.1767,-10.3707 -4.875,-15.4375 -0.5661,-1.689 -1.1382,-3.3602 -1.7188,-5.0313 -1.7418,-5.0133 -3.5437,-9.9543 -5.4062,-14.8125 -1.2416,-3.2388 -2.5226,-6.4522 -3.8125,-9.625 -2.5798,-6.3455 -5.253,-12.5606 -8,-18.6562 -2.7469,-6.0956 -5.5579,-12.0732 -8.4375,-17.9375 -1.4398,-2.9322 -2.9085,-5.8409 -4.375,-8.7188 -4.3994,-8.6336 -8.907,-17.0316 -13.4688,-25.2187 -1.5207,-2.729 -3.0325,-5.4097 -4.5625,-8.0938 -3.0601,-5.3682 -6.1468,-10.6724 -9.2187,-15.875 -7.6796,-13.0064 -15.3431,-25.5111 -22.7188,-37.6875 -20.6841,-34.1466 -39.7578,-65.9788 -54.6875,-102.75 -2.133,-5.253 -4.2006,-10.6184 -6.1562,-16.0937 -0.9778,-2.7376 -1.9131,-5.5114 -2.8438,-8.3125 -0.9307,-2.8011 -1.8369,-5.6301 -2.7187,-8.5 -0.4409,-1.4349 -0.8842,-2.8907 -1.3125,-4.3438 -0.8565,-2.9062 -1.6952,-5.8296 -2.5,-8.8125 -0.4024,-1.4914 -0.7984,-2.9884 -1.1875,-4.5 -0.7782,-3.0231 -1.5264,-6.11099 -2.25,-9.21871 -1.4472,-6.21543 -2.7823,-12.60221 -4,-19.1875 -0.9133,-4.93897 -1.7545,-9.98848 -2.5313,-15.15625 -0.777,-5.16777 -1.491,-10.42938 -2.125,-15.84375 -0.4228,-3.60958 -0.7993,-7.30548 -1.1562,-11.03125 -0.7139,-7.45153 -1.3105,-15.11459 -1.75,-23.0625 -0.3296,-5.96093 -0.582,-12.08285 -0.75,-18.34375 -0.168,-6.2609 -0.25,-12.67133 -0.25,-19.25 0,-4.56361 0.063,-9.13331 0.1875,-13.6875 0.124,-4.55418 0.3166,-9.08326 0.5625,-13.625 1.3526,-24.97958 4.5348,-49.75607 9.375,-74.0625 1.3201,-6.62903 2.7491,-13.22606 4.3125,-19.78125 1.5634,-6.55519 3.2627,-13.06008 5.0625,-19.53125 1.1999,-4.31412 2.4477,-8.63325 3.75,-12.90625 2.6047,-8.545997 5.4037,-16.980307 8.4062,-25.343747 1.5011,-4.18172 3.0587,-8.3372 4.6563,-12.46875 3.1952,-8.2631 6.5877,-16.42443 10.1562,-24.46875 4.4604,-10.0554 9.2039,-19.95388 14.2188,-29.625 1.003,-1.9342204 2.0068,-3.8635304 3.0312,-5.7812504 2.0487,-3.83543998 4.1484,-7.60784 6.2813,-11.375 1.0665,-1.88358 2.1316,-3.7590496 3.2187,-5.6249996 2.1741,-3.73189 4.4011,-7.43466 6.6563,-11.09375 4.5104,-7.31818 9.1778,-14.49113 14,-21.5 2.4111,-3.50443 4.8577,-6.98367 7.3437,-10.40625 7.4579,-10.26773 15.2485,-20.1483 23.3438,-29.625 2.6984,-3.1589 5.4224,-6.27878 8.1875,-9.34375 2.7651,-3.06497 5.5764,-6.063223 8.4062,-9.031253 2.8297,-2.96803 5.7013,-5.91319 8.5938,-8.78125 2.8872,-2.86261 5.8025,-5.6775 8.75,-8.4375 l 30.0937,-28.1875 8.375,-7.84375 -5.375,-10.125 -19.3125,-36.40625 -22.4687,-42.4375 -20.125,-37.96875 -5.5938,-10.5625 -11.5625,3.09375 -41.5,11.15625 c -61.1846,16.44637 -151.9401,28.44572 -258.3438,28.03125 -0.01,-4e-5 -0.021,4e-5 -0.031,0 -7.591,-0.0297 -15.2546,-0.12221 -23,-0.28125 -0.01,-2.1e-4 -0.021,2.1e-4 -0.031,0 -19.3801,-0.39838 -39.233,-1.19738 -59.4687,-2.46875 -0.01,-6.5e-4 -0.021,6.5e-4 -0.031,0 -12.1378,-0.76286 -24.4124,-1.70944 -36.8125,-2.8125 -0.01,-9.1e-4 -0.021,9.1e-4 -0.031,0 -20.6746,-1.83957 -41.6916,-4.17342 -62.9688,-7.03125 -0.01,-10e-4 -0.021,0.001 -0.031,0 -47.1244,-6.33051 -95.5332,-15.2903 -144.3672,-27.33398 l 1.2129,-4.25781 6.0938,-21.3125 7.125,-24.96875 -0.4063,0.0937 c 1.2442,-4.98246 2.3939,-9.97433 3.375,-15 l 69.5625,23.78125 -1.2187,1.3125 -16.6875,18.09375 23.7187,6.5625 117.0625,32.3125 8.2813,2.3125 6.1875,-6.03125 27.0312,-26.4375 18.6875,-18.21875 -25.1562,-6.96875 -86.1875,-23.8125 10.0625,-17.59375 c -51.6642,-11.63309 -100.7012,-22.85116 -145.7813,-33 0.3366,-8.21649 0.4111,-16.42397 0.1563,-24.625 30.125,0.58413 60.25,1.16679 90.375,1.75 -0.3578,6.3748 -0.709,12.74996 -1.0625,19.125 36.6985,-1.19146 73.3959,-2.41357 110.0937,-3.625 l -0.125,1.125 -1.875,17.5 17.5625,-0.9375 109.5938,-5.78125 7.8125,-0.40625 4.125,-6.625 18.5,-29.71875 15.2187,-24.40625 -28.7187,1.5 -60.9688,3.15625 0.061,-0.375 2.9688,-18.9375 -19.0938,1.6875 -101.1875,8.96875 9.625,-19.9375 -25.9375,1.9375 -142.5312,10.78125 -0.375,0.0312 2.1875,-0.75 128.1562,-43.5625 -0.2812,2.375 -2.625,22.625 21.8437,-6.53125 134.875,-40.40625 8.4375,-2.53125 1.9063,-8.625 7.9375,-36.03125 5.625,-25.59375 -24.9375,8.125 -94.5,30.8125 0.2187,-6.3125 0.875,-23.65625 -21.7812,9.3125 -34.8125,14.875 -0.25,0.0937 -0.2813,0.125 -140.5937,66.6875 -5.1875,2.46875 c -3.7805,-19.7292 -7.1251,-42.3494 -20.9375,-63.3125 -0.032,-0.0522 -0.062,-0.10415 -0.094,-0.15625 -0.09,-0.1359 -0.1593,-0.27055 -0.25,-0.40625 l -0.031,0.0312 c -12.624,-20.4504 -33.212,-34.20435 -56.2201,-39.09375 l -9.375,-1.96875 -20.82032,26.73437 -16.36132,-27.17383 -32.47071,-1.80664 z m -183.06445,225.83985 c 0.1025,2.31591 0.52865,10.58015 1.03125,18 l -23.75,7.03125 -0.65625,-21.65625 23.375,-3.375 z"
       id="path5189-7" />
    <path
       inkscape:connector-curvature="0"
       style="font-size:medium;font-style:normal;font-variant:normal;font-weight:normal;font-stretch:normal;text-indent:0;text-align:start;text-decoration:none;line-height:normal;letter-spacing:normal;word-spacing:normal;text-transform:none;direction:ltr;block-progression:tb;writing-mode:lr-tb;text-anchor:start;baseline-shift:baseline;color:#000000;fill:#8a63a8;fill-opacity:1;fill-rule:nonzero;stroke:none;stroke-width:107.80000305;marker:none;visibility:visible;display:inline;overflow:visible;enable-background:accumulate;font-family:Sans;-inkscape-font-specification:Sans"
       d="m 225.71704,-278.07412 c -242.08756,60.42441 -473.33266,45.27769 -595.40429,12.46484 l -23.2793,-6.25781 21.5293,61.47656 c 136.62234,33.86465 369.56149,46.2604 615.05859,-16.43945 l -2.36914,-5.99609 -0.125,-0.25 -0.0625,-0.25 c -5.10383,-14.41017 -10.64605,-29.28738 -15.34766,-44.74805 z m 300.81246,0.56641 -10.3085,36.15039 -3.5625,12.4375 -0.2598,3.62304 c 243.2818,60.9735 473.5331,48.49417 609.0391,14.90625 l 21.5293,-61.47656 -23.2793,6.25781 c -121.6943,32.71141 -351.8869,47.87382 -593.1583,-11.89843 z m -944.03707,12.66796 -13.80468,26.04297 -22.46875,42.4375 -13.04493,24.5918 65.20118,-7.87305 12.71875,-24.03125 -28.60157,-61.16797 z m 1585.01567,0 -28.6016,61.16797 12.7188,24.03125 65.2011,7.87305 -13.0449,-24.5918 -22.4687,-42.4375 -13.8047,-26.04297 z m -1567.69535,99.41797 -65.0918,12.78907 22.2793,20.86718 c 97.84097,91.616323 163.25,237.05247 163.25,387.4375 0,143.20831 -41.00664,213.98861 -88.375,292.18751 -47.36836,78.1988 -104,166.1136 -104,306.4062 0,122.0541 30.09407,224.47442 88.43945,315.73442 5.47903,-1.6535 11.02294,-3.0709 16.56055,-4.2656 14.60639,-3.1515 29.03067,-4.7595 42.16601,-4.7129 -62.65509,-88.356 -93.25976,-183.68092 -93.25976,-306.75592 0,-253.297 192.375,-289.7935 192.375,-598.59371 0,-162.683157 -68.15772,-318.353657 -174.34375,-421.09375 z m 1550.37505,0 C 1044.0018,-62.681687 975.844,92.988813 975.844,255.67197 c 0,308.80021 192.375,345.29671 192.375,598.59371 0,123.075 -30.6027,218.39992 -93.2578,306.75592 13.1374,-0.047 27.5645,1.5608 42.1738,4.7129 5.535,1.1942 11.0782,2.6112 16.5547,4.2637 58.3444,-91.2594 88.4356,-193.67952 88.4356,-315.73252 0,-140.2926 -56.6316,-228.2074 -104,-306.4062 -47.3684,-78.1989 -88.375,-148.9792 -88.375,-292.18751 0,-150.38503 65.409,-295.821177 163.25,-387.4375 l 22.2793,-20.86718 -65.0918,-12.78907 z M -155.031,-45.609277 c 36.87811,94.55788 47.0625,153.013157 47.0625,280.656247 -3.45586,78.50247 -21.90313,156.70681 -46.125,219.62501 l 257.59375,0 c 32.16763,-26.9036 64.68058,-57.9931 101.21875,-94.53126 34.29441,-34.29443 63.79089,-65.0359 89.53125,-95.28125 l 0,-242.316397 c -0.0257,-0.008 -0.0505,-0.0173 -0.0762,-0.0254 -1.18927,-0.37514 -2.35992,-0.77149 -3.52148,-1.17969 -0.30608,-0.10757 -0.61182,-0.21461 -0.91602,-0.32422 -1.12601,-0.40571 -2.24104,-0.82359 -3.34179,-1.25391 -0.26898,-0.10515 -0.53328,-0.21388 -0.80078,-0.32031 -0.71521,-0.28453 -1.4202,-0.57458 -2.125,-0.86719 -1.16523,-0.48377 -2.31545,-0.97613 -3.45313,-1.47656 -0.30811,-0.13551 -0.61964,-0.26788 -0.92578,-0.4043 -1.45349,-0.64775 -2.89031,-1.3033 -4.30078,-1.96289 -0.005,-0.002 -0.0103,-0.005 -0.0156,-0.008 -3.30893,-1.54758 -6.48482,-3.09348 -9.57812,-4.57422 -0.77083,-0.3689804 -1.53243,-0.7282404 -2.29102,-1.0859404 -0.50069,-0.2361 -1.00251,-0.47492 -1.49804,-0.70507 -1.27511,-0.59223 -2.53686,-1.16977 -3.7793,-1.71289 l -0.5,-0.21875 -0.4375,-0.25 c -1.3875,-0.72469 -2.82194,-1.47105 -4.28711,-2.25 -4.9e-4,-2.7e-4 -0.001,2.6e-4 -0.002,0 -1.46571,-0.77926 -2.96195,-1.59111 -4.47657,-2.44727 -1.51414,-0.85589998 -3.04583,-1.75754998 -4.58007,-2.71289 -4.6e-4,-2.9e-4 -0.002,2.9e-4 -0.002,0 -0.7669,-0.47755 -1.53425,-0.96994 -2.30078,-1.47656 -4.4e-4,-3e-4 -0.002,2.9e-4 -0.002,0 -1.53355,-1.01361 -3.0618,-2.0894 -4.57227,-3.23633 -4e-4,-3.1e-4 -0.002,3.1e-4 -0.002,0 -1.51088,-1.14729 -3.00196,-2.36664 -4.46094,-3.66992 -0.72983,-0.6519496 -1.45067,-1.3243196 -2.16211,-2.0195296 -0.71111,-0.69488 -1.41242,-1.41141 -2.10156,-2.15235 -0.68914,-0.74093 -1.36574,-1.5051 -2.0293,-2.29492 -1.32712,-1.57964 -2.59952,-3.26062 -3.80273,-5.05273 l -4.84375,-7.25 3.875,-7.78125 c 1.48877,-3.00723 2.94885,-6.01138 4.38281,-9.01563 l -380.35351,-0.42383 z m 183.80468,152.558597 159.2168,0.30273 0,25.87109 -3.95703,3.47657 c 2.88151,2.2863 4.80664,5.54388 4.80664,9.36914 0,2.42236 -0.74981,4.68328 -1.98438,6.63672 l -0.16406,0.25586 -11.63281,10.34375 c 0.58416,0.25838 4.94854,1.14011 8.96875,4 2.99975,2.13396 4.8125,5.54686 4.8125,9.375 0,2.42236 -0.74981,4.68324 -1.98438,6.63672 l -0.16406,0.25585 -11.63672,10.3418 c 0.57728,0.2574 4.94859,1.13931 8.97266,4.00195 2.99975,2.13396 4.8125,5.54686 4.8125,9.375 -0.0248,2.12178 -0.90433,4.66195 -2.14844,6.89258 L 173.8479,225.5001 c 0.85629,0.23231 6.50695,1.909 10.17969,4.11523 3.91818,2.35366 7.36803,9.22955 4.67188,13.9043 l 5.11914,0.041 0,38.4082 8.16601,0 1.07227,26.93164 -74.52344,66.58399 -173.36719,-0.91993 0,-32.0664 9.20508,-10.41406 0,-29.94727 -0.12109,-0.0352 0.12109,-0.45508 0,-1.71679 0.76758,-1.22461 0.36328,-1.47266 6.73633,-6.81445 c -2.13776,-3.02463 -3.375,-6.56982 -3.375,-10.34766 0,-6.471 3.64238,-12.24362 9.21679,-15.90039 -5.57469,-3.65675 -9.21679,-9.42919 -9.21679,-15.90039 0,-6.12844 3.25456,-11.63135 8.33398,-15.29492 -5.07891,-3.67323 -8.33398,-9.18636 -8.33398,-15.31446 0,-6.12484 3.25189,-11.62547 8.32617,-15.28906 -5.07425,-3.66358 -8.32617,-9.1623 -8.32617,-15.28711 0,-3.05631 0.81095,-5.96095 2.25195,-8.56054 l -7.39258,0 0,-29.98047 65.05078,-41.59375 z m 108.83789,113.1582 c -0.0881,0.25927 -0.18241,0.54902 -0.27539,0.90234 l 0.002,0 0,-0.002 c 0.0928,-0.3524 0.18568,-0.64162 0.27343,-0.90039 z m 0.47852,28.19922 c 0,1.50662 -0.38201,2.08083 -0.75391,3.49414 l 0.002,0 0,-0.002 c 0.37171,-1.4117 0.75195,-1.98636 0.75195,-3.49219 z m 49.94922,5.10351 -55.73828,49.86719 55.73828,-49.86523 0,-0.002 z M 646.4788,606.20318 c -32.1567,26.8972 -64.6621,57.9746 -101.1875,94.5 -34.2944,34.2945 -63.79093,65.0359 -89.53129,95.2813 l 0,298.09372 345.52149,0 0.022,-0.062 -17.6777,0 c 0,0 44.4334,-106.72032 60.0312,-158.64252 -4.6259,-10.8594 -75.8666,21.9946 -93.0312,11.5625 l -150.6875,-197.875 c 4.9209,27.0686 15.4166,52.6889 20.75,79.625 -0.054,0.015 -0.1023,0.048 -0.1563,0.062 l 0.2188,0.75 c -12.6773,7.7302 -28.7479,13.8569 -43.1875,11.5625 -24.2709,-3.8567 -45.2188,-25.7188 -45.2188,-25.7188 l 13.875,-28.8437 25.3438,-53.9688 c -7.2924,-4.6583 -12.1875,-12.8166 -12.1875,-22 0,-14.273 11.8207,-26.125 26.0937,-26.125 14.273,0 26.0938,11.852 26.0938,26.125 0,1.0778 -0.088,2.1417 -0.2188,3.1875 2.4215,4.1683 5.3223,7.9195 9.5938,10.4063 12.5706,8.1951 26.4183,14.2147 39.875,20.8125 72.2536,35.6839 139.998,71.0453 211.4375,108.2812 3.4197,30.6117 -30.7257,53.0226 -26.2188,79.9375 22.745,55.2612 110.4063,160.86132 110.4063,160.86132 l -21.041,0 -33.3653,0 -14.6758,0 -38.6972,0 -16.3106,0 0,0.062 140.0098,0 c 33.7154,-102.19102 41.625,-126.49982 41.625,-240.75002 -0.6115,-73.8216 -21.3129,-159.1997 -48.4063,-247.125 l -319.0937,0 z m 375.875,596.33012 c -187.3988,30.43 -429.8968,-31.6872 -647.35355,99.6074 -217.45364,-131.2927 -459.94623,-69.1785 -647.34375,-99.6054 l 0,54.6836 c 203.63743,31.7616 426.40633,-25.538 619.5,91.0468 l 27.84375,17.375 27.84375,-17.375 c 193.0968,-116.5867 415.8694,-59.2837 619.5098,-91.0488 l 0,-54.6836 z"
       id="path3515-4" />
    <path
       inkscape:connector-curvature="0"
       style="font-size:medium;font-style:normal;font-variant:normal;font-weight:normal;font-stretch:normal;text-indent:0;text-align:start;text-decoration:none;line-height:normal;letter-spacing:normal;word-spacing:normal;text-transform:none;direction:ltr;block-progression:tb;writing-mode:lr-tb;text-anchor:start;baseline-shift:baseline;color:#000000;fill:#c2231c;fill-opacity:1;stroke:none;stroke-width:66.69999695;marker:none;visibility:visible;display:inline;overflow:visible;enable-background:accumulate;font-family:Sans;-inkscape-font-specification:Sans"
       d="m 845.6409,-589.57803 -114.9961,37.4668 1.0508,-27.79102 -183.3868,85.08985 2.8594,9.97265 154.6446,-54.24218 -3.002,25.93945 134.8848,-40.41797 7.9453,-36.01758 z m -798.62308,67.83203 94.80665,39.07227 -9.94922,13.41016 96.13281,20.00586 34.62109,5.78711 -6.47265,-11.21094 -88.4336,-25.54297 10.69727,-16.05664 L 47.01782,-521.746 z m 654.85348,52.98243 -147.1035,10.26953 -0.092,13.86914 105.3047,1.94726 -1.0156,18.27149 110.9277,-3.65039 -1.9219,18.27539 109.6055,-5.75977 18.5,-29.74609 -79.416,4.15234 2.8926,-18.65429 -127.4668,11.30078 9.7851,-20.27539 z m -600.04293,33.43164 -150.15039,24.20312 101.04297,6.19727 -4.79102,21.75781 230.27149,-33.32422 -8.20899,-14.2207 -58.19336,5.61914 -113.10156,9.8457 3.13086,-20.07812 z m 450.65043,46.10742 -1.7676,17.01367 93.5723,31.82617 -16.8575,18.23047 117.4258,32.41406 26.6953,-26.50195 -104.832,-28.93555 9.5977,-16.77929 -123.834,-27.26758 z m -255.54887,5.16406 -129.01367,38.25977 -0.69336,-22.47071 -127.1289,50.81055 106.61328,-16.25 -7.28711,19.7168 162.51562,-61.39649 -5.00586,-8.66992 z m 226.60937,62.36719 -264.83398,92.32031 c 1.4005,6.13594 4.15625,18.4375 4.15625,18.4375 l 254.58793,-89.41992 6.0898,-21.33789 z m -25.73046,90.13867 -233.38281,81.50586 -0.84961,17.92969 232.96289,-81.75586 1.26953,-17.67969 z m -687.40234,60.44531 13.9375,28.90625 -169.4375,-21.34375 85.0625,119.562503 -26.25,0 60.4375,83 -23.0625,0 83.46875,94.812497 -25.84375,-70.687497 15.625,-5.625 -40.125,-61.3750004 32.53125,0 -69.59375,-106.4375026 129.375,14.125003 -12.09375,-25.062503 113.5625,7.03125 -167.59375,-56.90625 z m 1129.1973,0 -167.5938,56.90625 113.5625,-7.03125 -12.0937,25.062503 129.375,-14.125003 -69.5938,106.4375026 32.5313,0 -40.125,61.3750004 15.625,5.625 -25.8438,70.687497 83.4688,-94.812497 -23.0625,0 60.4375,-83 -26.25,0 85.0625,-119.562503 -169.4375,21.34375 13.9375,-28.90625 z m -564.60355,368.8125 -26.90625,36.75 c -34.32833,46.88483 -75.63426,90.88424 -126.90625,142.15625 -51.27199,51.27201 -95.27141,92.57791 -142.15625,126.90621 l -36.75,26.9063 36.75,26.9062 c 46.88484,34.3284 90.88426,75.6343 142.15625,126.9063 51.27199,51.272 92.57792,95.2714 126.90625,142.1562 l 26.90625,36.7813 26.90625,-36.7813 c 34.32833,-46.8848 75.63426,-90.8842 126.9062,-142.1562 51.272,-51.272 95.2715,-92.5779 142.1563,-126.9063 l 36.75,-26.9062 -36.75,-26.9063 C 624.0842,469.18738 580.0847,427.88148 528.8127,376.60947 477.54076,325.33746 436.23483,281.33805 401.9065,234.45322 l -26.90625,-36.75 z m 0,56.4375 c 35.97019,49.12725 78.53811,94.38185 130.21875,146.06246 51.6806,51.6807 96.9353,94.2486 146.0625,130.2188 -49.1272,35.9702 -94.3819,78.5381 -146.0625,130.2187 -51.68063,51.6807 -94.24856,96.9353 -130.21875,146.0625 -35.97019,-49.1272 -78.53812,-94.3818 -130.21875,-146.0625 -51.68064,-51.6806 -96.93525,-94.2485 -146.0625,-130.2187 49.12725,-35.9702 94.38186,-78.5381 146.0625,-130.2188 51.68063,-51.68061 94.24856,-96.93521 130.21875,-146.06246 z m 0,59.375 -35.5625,58.3125 -41,0 0,40.99996 -41.03125,0 0,41.0313 -41,0 0,41 -58.3125,35.5625 58.3125,35.5625 0,41 41,0 0,41.0312 41.03125,0 0,41 41,0 35.5625,58.3125 35.5625,-58.3125 41,0 0,-41 41.03125,0 0,-41.0312 41,0 0,-41 58.3125,-35.5625 -58.3125,-35.5625 0,-41 -41,0 0,-41.0313 -41.03125,0 0,-40.99996 -41,0 -35.5625,-58.3125 z m 0,46.75 22.9375,35.53126 34.125,0 0,42.3125 35.25,0 0,35.25 42.31245,0 0,34.125 22.2188,14.3437 -94.21875,0 c -4.19628,-30.8434 -30.63178,-54.625 -62.625,-54.625 -31.99322,0 -58.42872,23.7816 -62.625,54.625 l -94.21875,0 22.21875,-14.3437 0,-34.125 42.3125,0 0,-35.25 35.25,0 0,-42.3125 34.125,0 22.9375,-35.53126 z m -29.6836,39.92386 0,63.375 17.41797,0 0,-20.9004 5.94727,-5.3399 26.33789,26.2403 21.66601,0 -34.25195,-33.9375 32.71289,-29.4375 -20.39258,0 -31.91406,30.1113 0,-30.1113 -17.52344,0 z m 29.6836,83.2636 c 23.00055,0 42.11689,16.5424 46.15625,38.375 0.25781,1.3935 0.45508,2.817 0.59375,4.25 0.0584,0.6376 0.12356,1.2929 0.15625,1.9375 0.004,0.073 -0.004,0.1456 0,0.2188 0.0336,0.7286 0.0625,1.4506 0.0625,2.1875 0,0.734 -0.0266,1.4619 -0.0625,2.1875 -0.003,0.073 0.004,0.146 0,0.2187 -0.0354,0.6516 -0.0939,1.2933 -0.15625,1.9375 -0.0693,0.7166 -0.14966,1.4494 -0.25,2.1563 -0.10034,0.7069 -0.21485,1.397 -0.34375,2.0937 -4.03936,21.8327 -23.15569,38.375 -46.15625,38.375 -23.00056,0 -42.11689,-16.5423 -46.15625,-38.375 -0.12891,-0.6967 -0.24341,-1.3868 -0.34375,-2.0937 -0.10034,-0.7069 -0.18066,-1.4397 -0.25,-2.1563 -0.0623,-0.6442 -0.12085,-1.2859 -0.15625,-1.9375 -0.004,-0.073 0.003,-0.1459 0,-0.2187 -0.0359,-0.7256 -0.0625,-1.4535 -0.0625,-2.1875 0,-0.7369 0.0289,-1.4589 0.0625,-2.1875 0.004,-0.073 -0.004,-0.1456 0,-0.2188 0.0327,-0.6446 0.0978,-1.2999 0.15625,-1.9375 0.13867,-1.433 0.33594,-2.8565 0.59375,-4.25 4.03936,-21.8326 23.15569,-38.375 46.15625,-38.375 z m -14.09375,9.75 c -17.43473,14.2576 -16.8125,16.3391 -16.8125,37.2188 0,20.8796 -0.62223,22.9612 16.8125,37.2187 l 0,-28.625 14.09375,0 14.09375,0 0,28.625 c 17.43473,-14.2575 16.8125,-16.3391 16.8125,-37.2187 0,-20.8797 0.62223,-22.9612 -16.8125,-37.2188 l 0,28.625 -14.09375,0 -14.09375,0 0,-28.625 z m -142.75,45.8125 94.21875,0 c 4.19628,30.8435 30.63178,54.625 62.625,54.625 31.99322,0 58.42872,-23.7815 62.625,-54.625 l 94.21875,0 -22.2188,14.3438 0,34.125 -42.31245,0 0,35.25 -35.25,0 0,42.3125 -34.125,0 -22.9375,35.5312 -22.9375,-35.5312 -34.125,0 0,-42.3125 -35.25,0 0,-35.25 -42.3125,0 0,-34.125 -22.21875,-14.3438 z m 127.16015,57.9102 0,63.375 17.41797,0 0,-20.9004 5.94727,-5.3398 26.33789,26.2402 21.66601,0 -34.25195,-33.9375 32.71289,-29.4375 -20.39258,0 -31.91406,30.1113 0,-30.1113 -17.52344,0 z m -232.5039,533.27732 9.90625,20.9375 -132.5,-11 188.25,66.1875 -8.78125,-26.6875 125.28125,36.9375 -3.9375,-25 83.96875,34.375 83.96875,-34.375 -3.90625,25 125.25005,-36.9375 -8.75,26.6875 188.2187,-66.1875 -132.5,11 9.9063,-20.9375 -139.75005,36.7188 5.625,-35.8438 -128.0625,45.9063 -128.0625,-45.9063 5.625,35.8438 -139.75,-36.7188 z"
       id="rect4927-1" />
    <path
       inkscape:connector-curvature="0"
       style="fill:#fab017;fill-opacity:1;stroke:none"
       d="m 394.47681,-608.90029 -7.83594,15.41015 17.26367,0.91993 7.83594,-15.41016 -17.26367,-0.91992 z m 22.63867,10.22851 -7.83594,15.41016 10.60157,18.36328 9.44531,-12.62109 -12.21094,-21.15235 z m 46.88672,1.00196 -36.25,48.29492 c 5.6065,16.3244 18.55528,29.49312 20.58008,44.76367 l -1.56055,24.92383 c 0,0 0.52062,3.02419 1.07422,4.51758 l 24.26953,42.58984 -18.67578,36.73633 -28.125,-0.4668 c -4.4174,9.03548 -9.09895,18.51854 -13.90625,27.34961 l -32.9668,-0.70703 -16.64062,32.66601 -38.17578,-0.81835 -15.73047,-27.2461 c -27.3827,10.46253 -50.64923,20.70633 -78.23633,30.64649 2.1689,33.24996 14.49335,64.96074 25.53125,96.125 l 257.4062,-90.75 14.4004,-5.13868 2.2774,-7.97265 c 7.6502,-28.84389 10.5584,-58.74618 9.5097,-88.51367 -15.4704,1.10909 -31.08815,1.90719 -46.43745,-0.875 14.0244,-10.04236 34.74185,-7.73016 45.24995,-23 1.7716,-12.24919 -2.3932,-24.40311 -4.3125,-36.40625 -6.6469,-24.8467 -7.6692,-52.0189 -22.375,-74 -10.32615,-17.0263 -27.5104,-28.59655 -46.9062,-32.71875 z m -115.10156,11.1914 -9.63672,18.95508 21.23437,1.13086 9.63672,-18.95508 -21.23437,-1.13086 z m 26.58789,10.4043 -9.63477,18.95898 28.23438,48.9043 20.83984,0.44727 -39.43945,-68.31055 z m -73.90625,6.54297 -11.10742,21.84765 24.47461,1.30274 11.10742,-21.8457 -24.47461,-1.30469 z m 30.09961,11.04492 -11.10938,21.84766 27.39258,47.44336 24.01953,0.51367 -40.30273,-69.80469 z m -82.02735,13.29492 -10.6289,20.90821 23.42187,1.24804 10.62891,-20.9082 -23.42188,-1.24805 z m 261.69136,2.99024 c -1.9154,22.7117 -17.77625,44.27591 -39.49995,51.6875 -5.2654,-0.99931 -10.44385,-2.31361 -15.53125,-3.9375 8.4223,-7.29425 17.60545,-13.60302 26.53125,-20.25 10.6858,-8.074 15.418,-22.3445 28.49995,-27.5 z m -232.74409,7.82617 -10.63086,20.90625 29.60547,51.27929 22.98633,0.49219 -41.96094,-72.67773 z m -45.72461,29.69922 c -5.4443,8.28654 -10.84575,22.04604 -11.12695,31.22851 l 29.49804,10.26367 -18.37109,-41.49218 z m 166.19727,3.5625 -9.6504,18.98047 19.95313,0.40234 9.63672,-18.95508 c 0,0 -14.11766,-0.45423 -19.93945,-0.42773 z m 25.60351,10.23828 -9.63672,18.95508 20.77344,35.98242 20.82812,0.42578 -31.96484,-55.36328 z m -69.88477,13.50586 -10.80273,21.24804 23.35938,0.5 10.80273,-21.24609 -23.35938,-0.50195 z m 30.10938,11.0625 -11.10938,21.84765 21.6543,37.50586 24.01758,0.51367 -34.5625,-59.86718 z m -80.9375,15.18164 -10.63086,20.90625 22.98633,0.49414 10.62891,-20.9082 -22.98438,-0.49219 z m 30.5625,13.61719 -10.63086,20.9082 21.1543,36.63867 22.98633,0.49219 -33.50977,-58.03906 z m 106.41797,10.45312 -10.60156,20.84961 16.60156,0.35547 10.59961,-20.84766 c -1.0959,-0.008 -16.59961,-0.35742 -16.59961,-0.35742 z m -154.79883,24.31836 c -23.5445,4.23952 -42.85896,3.5998 -66.25586,8.80078 0.2499,7.61978 0.64841,15.23509 1.25781,22.83594 24.4189,-6.60532 46.31197,-14.065 69.94727,-23.06641 l -4.94922,-8.57031 z m 106.23633,5.58398 c -2.5854,6.41606 -9.15625,18.00977 -9.15625,18.00977 l 19.96289,0.42773 9.15625,-18.00976 -19.96289,-0.42774 z m -52.14844,26.66407 -11.14844,21.92578 22.98633,0.49219 11.14649,-21.92383 -22.98438,-0.49414 z m 172.64848,86.1289 -248.4766,85.84961 0.43945,35.25781 236.93359,-82.20703 11.10356,-38.90039 z m -17.33793,84.43946 -232.80469,81.28906 c -1.4649,31.735843 -14.5058,61.112053 -28.375,89.126953 6.9838,10.40197 18.38229,16.74969 29.24609,22.4238296 18.5479,8.10808 36.76304,19.1740404 57.70704,18.8750004 2.0705,-22.28398 5.19365,-44.83695 14.00195,-65.58789 3.7058,-12.53308 13.55448,-22.04619 25.70898,-26.48633 19.6116,-10.57988 42.6486,3.86561 52.4336,21.35742 16.3449,25.30842 14.30025,56.6375296 14.40625,85.45118 45.5181,-3.82694 86.32371,-30.6405204 113.01761,-66.94141 -30.9864,-47.0284 -42.51793,-104.000373 -45.34183,-159.507813 z m 409.49613,154.310543 -349.3575,0.38868 3.4746,5.26953 -6.1875,8.40625 c -23.7236,32.26169962 -57.80614,57.83373 -97.21089,68.33984 l 0,228.064447 c 25.74036,30.24535 55.23689,60.98682 89.53129,95.28125 36.5381,36.53816 69.0511,67.62766 101.2187,94.53126 l 257.5938,0 c -24.2219,-62.9182 -42.6692,-141.12254 -46.125,-219.62501 0,-127.64309 10.1844,-186.098357 47.0625,-280.656247 z m -222.7637,11.90821 c 1.4436,2.86989 2.7121,2.51035 2.5215,11.30078 -0.1907,8.79043 4.6478,27.8884696 -3.2774,39.19922 -7.8717,-14.2260004 -3.2053,-30.7626 -3.0839,-39.62891 0.1213,-8.86628 1.7157,-8.27813 3.8398,-10.87109 z m -129.7481,53.84375 c 4.4266,1.37407 5.351,-0.32049 14.2012,8.73437 8.8503,9.05484 33.4401,23.20761 36.9883,42.92774 -22.6731,-6.05902 -34.9247,-27.61931 -43.9238,-36.67774 -8.9991,-9.05842 -6.7659,-10.14076 -7.2657,-14.98437 z m 252.8164,0 c -0.4997,4.84361 1.7335,5.92595 -7.2656,14.98437 -8.9991,9.05843 -21.2507,30.61872 -43.9238,36.67774 3.5483,-19.72013 28.138,-33.8729 36.9883,-42.92774 8.8502,-9.05486 9.7746,-7.3603 14.2012,-8.73437 z M 677.719,55.234473 c 9.7222,0.69769 16.2478,26.95166 19.8438,34.15625 9.2172,17.718927 25.4509,29.996087 38.0937,45.031247 14.5696,17.65457 17.5826,42.09938 15.0313,64.15625 -5.2085,26.01629 -21.0234,48.37457 -27.5,74.03125 -4.02,16.01176 -6.6449,34.18994 3,48.8125 4.4969,13.35071 17.9935,18.62056 29.4062,24.59375 -0.4051,8.49418 -0.1033,17.08152 -1.625,25.5 -4.8716,7.16554 -14.3907,9.36262 -22.2187,12.03126 -17.6372,4.3512 -35.8065,6.931 -54.0313,7.5625 -18.2248,-0.6315 -36.3941,-3.2113 -54.0312,-7.5625 -7.828,-2.66864 -17.3472,-4.86572 -22.2188,-12.03126 -1.5217,-8.41848 -1.2199,-17.00582 -1.625,-25.5 11.4127,-5.97319 24.9094,-11.24304 29.4063,-24.59375 9.6449,-14.62256 7.02,-32.80074 3,-48.8125 -6.4766,-25.65668 -22.2915,-48.01496 -27.5,-74.03125 -2.5513,-22.05687 0.4616,-46.50168 15.0312,-64.15625 12.6428,-15.03516 28.8766,-27.31232 38.0938,-45.031247 3.5959,-7.20459 10.1215,-33.45856 19.8437,-34.15625 z m 0,11.6875 c -7.395,10.9184 -4.63,29.08961 -16.5,40.343747 -14.9291,17.90441 -32.8239,34.41866 -41.25,56.6875 -4.1751,21.22032 -1.151,43.78904 7.8125,63.46875 12.1962,27.39032 21.0506,56.2826 25.8125,85.90625 1.1604,1.46342 4.7287,3.31028 6.5078,3.36328 2.786,-17.083 4.1426,-36.13841 10.4981,-52.08203 -16.8672,-22.03794 -25.2724,-45.96409 -34.2246,-72.34375 -6.5182,-17.17763 3.5364,-37.82884 20.6875,-43.71875 6.807,-1.30577 14.4189,-0.55119 20.6562,4.05078 6.5908,-4.4252 13.8492,-5.35655 20.6563,-4.05078 17.1511,5.88991 27.2057,26.54112 20.6875,43.71875 -8.9522,26.37966 -17.9825,50.49332 -34.8497,72.53125 6.3555,15.94362 7.8976,34.81153 10.6836,51.89453 2.4862,0 5.5218,-1.98825 6.9473,-3.36328 4.7619,-29.62365 13.6163,-58.51593 25.8125,-85.90625 8.9635,-19.67971 11.9876,-42.24843 7.8125,-63.46875 -8.4261,-22.26884 -26.3209,-38.78309 -41.25,-56.6875 -11.87,-11.254137 -9.105,-29.425347 -16.5,-40.343747 z m -166.7051,29.08594 c 4.465,0.35845 4.6726,-1.17183 15.9063,4.656247 11.2336,5.82807 38.4215,13.10135 48.8086,28.47656 -22.5124,-1.04252 -41.3623,-16.42292 -52.7305,-22.22851 -11.3682,-5.80558 -9.7659,-7.064457 -11.9844,-10.904297 z m 335.8477,0 c -2.2185,3.83983 -0.6162,5.098707 -11.9844,10.904297 -11.3682,5.80558 -30.2181,21.18599 -52.7305,22.22851 10.3871,-15.37521 37.575,-22.64849 48.8086,-28.47656 11.2336,-5.828077 11.4412,-4.297807 15.9063,-4.656247 z M 665.7327,160.84775 c -16.8446,-0.67537 -19.9536,26.12695 -14.4512,39.85547 7.26,15.99814 16.6316,37.87897 26.4375,52.4375 9.8059,-14.55852 19.1775,-36.43936 26.4375,-52.4375 6.0716,-15.14872 5.1585,-45.21597 -19.125,-38.46875 4.8603,2.59794 9.6169,26.31717 -2.25,34.16407 -3.0244,1.11344 -6.6835,1.31305 -10.125,0 -11.8669,-7.8469 -9.1103,-28.81613 -1.25,-34.41407 -2.0422,-0.70286 -3.9313,-1.06685 -5.6738,-1.13672 z m 11.9863,4.66797 c -5.0202,5.81611 -5.544,9.39067 -3.375,18.4375 1.6327,5.40201 4.657,5.78631 6.75,0 2.169,-9.04683 1.6452,-13.37139 -3.375,-18.4375 z M 554.7678,205.3165 c 7.1946,0.0287 14.2443,1.29115 19.9414,5.19922 -18.2841,12.34293 -40.1751,6.97754 -51.8027,7.49805 -11.6277,0.5205 -10.9308,-1.7995 -14.4277,-4.62695 3.6952,-2.28393 3.1658,-4.06482 14.6972,-4.48047 7.2071,-0.25979 19.6009,-3.63773 31.5918,-3.58985 z m 248.3399,0 c 11.9909,-0.0479 24.3846,3.33006 31.5918,3.58985 11.5313,0.41565 11.002,2.19654 14.6972,4.48047 -3.4969,2.82745 -2.8,5.14745 -14.4277,4.62695 -11.6276,-0.52051 -33.5186,4.84488 -51.8027,-7.49805 5.6971,-3.90807 12.7468,-5.17048 19.9414,-5.19922 z M 587.344,274.80088 c 2.6489,-0.0718 5.3519,0.19923 8.0957,0.89648 -10.1638,23.48324 -35.4878,27.15631 -46.7383,33.19727 -11.2507,6.04066 -12.0737,2.89975 -17.4062,1.0957 2.1916,-4.49045 0.5015,-6.4045 11.7246,-12.27343 9.8202,-5.13535 25.7818,-22.41336 44.3242,-22.91602 z m 183.1875,0 c 18.5424,0.50266 34.504,17.78067 44.3242,22.91602 11.2231,5.86893 9.533,7.78298 11.7246,12.27343 -5.3326,1.80406 -6.1556,4.94496 -17.4062,-1.0957 -11.2505,-6.04096 -36.5745,-9.71403 -46.7383,-33.19727 2.7438,-0.69725 5.4468,-0.96829 8.0957,-0.89648 z m -92.8125,17.58984 c -2.5766,8.20447 -3.8579,16.85159 -4.6875,25.4375 3.0011,0.28597 6.1517,0.47324 9.375,0 -0.8296,-8.58591 -2.1109,-17.23303 -4.6875,-25.4375 z m -893.28125,313.81246 c -27.09349,87.9253 -47.79475,173.3034 -48.40625,247.125 0,114.2502 7.90959,138.559 41.625,240.75002 l 516.59375,0 0,-298.09372 c -25.74036,-30.2454 -55.23684,-60.9868 -89.53125,-95.2813 -36.5254,-36.5254 -69.03087,-67.6028 -101.1875,-94.5 l -319.09375,0 z m 230.47851,58.0801 c 10.79144,0.3262 19.93323,10.3496 31.91602,28.0332 l 28.88086,-11.584 c 13.8814,4.7661 20.96579,24.36 21.16211,44.2618 0.20019,20.293 -6.68515,40.9456 -13.02735,50.6875 l -31.38281,-13.9707 -14.8125,7.3007 c 1.08406,21.0309 30.14478,25.9498 29.25,38.5235 0,0 -0.0279,6.4598 -8.86719,14.7285 -8.04459,5.584 -8.04492,20.664 -8.04492,20.664 l 0,121.7051 c 10.07552,7.2223 31.80847,16.8162 36.68555,31.25 0,8.29252 -23.05521,32.32422 -69.68164,32.32422 -54.37643,0 -77.23491,-23.5414 -76.81836,-32.32422 0.65415,-9.8477 28.76139,-27.2589 35.39062,-29.5 l 0,-123.8008 -42.19531,0.1739 c 0,0 1.11107,45.3797 14.97266,75.6484 0.79783,3.4019 -9.07714,18.3316 -30.31836,18.5527 -21.24121,0.2212 -40.4639,-8.1805 -34.64649,-20.2207 15.60291,-32.2931 19.8711,-72.83 19.8711,-72.83 -4.68163,-1.1193 -20.32262,-3.4913 -24.52149,-16.6563 6.44259,-7.2969 20.69727,-11.1953 20.69727,-11.1953 l 7.68164,-19.8867 c 26.44129,-4.632 28.34746,10.3623 32.22265,23.7832 l 27.17383,0 c 5.28228,-12.0332 11.62556,-20.142 17.48633,-24.3164 9.34881,-6.6588 12.41637,-7.5082 13.93555,-23.8086 0.0528,-0.5665 -41.90057,-8.8753 -37.03711,-42.7813 3.51398,-24.498 6.88693,-27.7097 36.83203,-41.3613 5.10434,-8.9344 8.15282,-16.8692 13.78906,-23.1875 1.15661,-0.176 2.2899,-0.2466 3.40625,-0.2129 z m -341.66601,513.70122 c -43.98929,0.4868 -111.03125,21.0296 -111.03125,61.9375 l 0,14.9375 11.5625,9.875 c 24.55453,22.9423 74.89581,39.3314 136.9375,48.6562 l 0,-121.8125 c 0,-9.2827 -15.98561,-13.8315 -37.46875,-13.5937 z m 1403.50975,0 c -21.4832,-0.2378 -37.4687,4.311 -37.4687,13.5937 l 0,121.8125 c 62.0417,-9.3248 112.383,-25.7139 136.9375,-48.6562 l 11.5625,-9.875 0,-14.9375 c 0,-40.9079 -67.0421,-61.4507 -111.0313,-61.9375 z m -1514.541,99.1426 0,189.9999 c 99.10947,83.1645 302.90489,42.7684 598.90625,80.7246 l 0,-74.8671 0,-16.1563 c 0,-6.4828 -2.48873,-17.2549 4.09375,-31.4375 6.58248,-14.1826 21.7037,-22.4449 45.84375,-28.3125 2.3139,-0.6521 3.36841,-1.7867 3.8164,-3.1543 l 0,-6.7891 c 1e-5,-0.029 -0.004,-0.059 -0.004,-0.088 l 0.004,0 0,-0.012 c 4.96132,-82.7145 -528.97619,5.653 -652.66015,-109.9101 z m 1625.5723,0 c -123.684,115.5631 -657.6196,27.1956 -652.6582,109.9101 l 0,6.916 c 0.4536,1.3544 1.5073,2.4776 3.8047,3.125 24.14,5.8676 39.2612,14.1299 45.8437,28.3125 6.5825,14.1826 4.0938,24.9547 4.0938,31.4375 l 0,16.1563 0,74.8691 c 296.0077,-37.9589 499.8052,2.4391 598.916,-80.7266 l 0,-189.9999 z m -1579.20121,61.33 19.76758,6.793 -12.63281,53.9531 48.63085,-41.582 24.00196,3.9062 -50.24805,44.0664 24.39844,68.086 -24.4375,-6.3985 -18.70313,-53.2304 -8.94922,7.2636 -8.76757,37.4512 -19.64649,-6.752 26.58594,-113.5566 z m 1491.01951,22.6621 61.3848,95.1856 -23.9902,5.1562 -12.67,-20.793 -40.7636,8.7637 -3.0039,24.1641 -22.959,4.9355 16.8418,-112.0039 25.1601,-5.4082 z m -1366.24412,8.3438 27.38867,3.1523 29.59766,117.6699 -26.11524,-3.0058 -5.71484,-25.4531 -44.37305,-5.1075 -11.34765,23.4883 -24.99414,-2.8769 55.55859,-107.8672 z m 1303.44532,0.9082 1.2441,18.7734 -16.2109,1.0781 6.3008,94.4883 -24.8008,1.6621 -6.2969,-94.459 -17.1816,1.1387 6.2969,94.457 -24.7989,1.6622 -6.2968,-94.459 -17.2676,0.707 -1.2481,-18.8047 22.045,-1.0273 57.2246,-3.8164 20.9902,-1.4004 z m -1239.9043,4.2695 22,1.75 57.25,3.4063 21,1.25 -1.125,18.7812 -16.21875,-0.9687 -5.625,94.5312 -24.8125,-1.4687 5.625,-94.5 -17.1875,-1.0313 -5.625,94.5 -24.8125,-1.4687 5.625,-94.5 -17.21875,-1.4688 1.125,-18.8125 z m 1129.707,3.207 0.584,18.8047 -16.2402,0.5078 2.9746,94.6504 -24.8438,0.7891 -2.9707,-94.6211 -17.2109,0.5332 2.9707,94.6191 -24.8437,0.7891 -2.9707,-94.6211 -17.2813,0.1 -0.5859,-18.8379 22.0683,-0.2519 57.3242,-1.8008 21.0254,-0.6602 z m -1012.10153,3.8399 22.04101,1.1308 57.32227,1.795 21.02734,0.6582 -0.59766,18.8066 -16.23828,-0.5137 -2.96679,94.6524 -24.84375,-0.7696 2.96679,-94.621 -17.20898,-0.5489 -2.9668,94.6211 -24.84375,-0.7695 2.9668,-94.6211 -17.25391,-0.9844 0.59571,-18.8359 z m 865.92773,2.7129 44.8457,110.7363 -24.5137,1.1895 -9.0664,-24.0606 -41.6504,2.0195 -6.9472,24.8379 -23.461,1.1367 35.086,-114.6113 25.707,-1.248 z m 311.1035,2.7617 -5.6562,44.9433 29.2832,-6.2968 -23.627,-38.6465 z m -385.5176,0.7129 -37.082,58.6406 42.3145,54.373 -28.5879,2.379 -30.8067,-42.418 -7.1074,9.5527 2.8965,34.8242 -22.9824,1.9121 -8.7871,-105.5957 23.123,-1.9238 4.1758,50.1699 35.9375,-59.6738 26.9062,-2.2402 z m -636.16598,0.4922 27.54102,1.2246 37.77734,115.3047 -26.26172,-1.168 -7.48437,-24.9863 -44.62305,-1.9844 -9.67187,24.2266 -25.13477,-1.1172 47.85742,-111.5 z m -326.23437,7.9043 -21.17578,43.6621 31.87695,3.6679 -10.70117,-47.33 z m 474.61132,12.5078 c -29.26604,7.1136 -35.41917,15.8747 -36.21679,26.1543 15.21838,6.5764 16.20398,7.7131 35.81054,12.6211 l 0.40625,-38.7754 z m 313.53903,0 0.4063,38.7754 c 19.6066,-4.908 20.5922,-6.0447 35.8105,-12.6211 -0.7976,-10.2796 -6.9507,-19.0407 -36.2168,-26.1543 z m 236.4141,1.541 -12.9922,46.1836 29.9219,-1.4512 -16.9297,-44.7324 z m -686.2168,4.0703 -18.06054,45.0391 32.05664,1.4257 -13.9961,-46.4648 z m 94.02735,33.75 0,176.0938 c 30.86822,33.0528 135.84114,39.2038 199,40.1562 63.15886,-0.9524 168.16305,-7.1034 199.03125,-40.1562 l 0,-176.0938 c -23.8635,18.9771 -97.74579,32.8245 -199.03125,36.7813 -101.28546,-3.9567 -175.13652,-17.8042 -199,-36.7813 z m 56.83203,64.5547 23.10351,2.1484 -3.72851,40.1153 44.31836,4.1191 3.72656,-40.1172 23.10351,2.1485 -9.80468,105.5058 -23.10352,-2.1465 4.46289,-48.0273 -44.3164,-4.1192 -4.46289,48.0274 -23.10352,-2.1484 9.80469,-105.5059 z m 245.6289,4.3906 48.97852,102.125 -24.44727,2.1113 -9.96484,-22.2168 -41.54102,3.5879 -6.00781,23.5977 -23.39648,2.0195 30.74023,-109.0097 25.63867,-2.2149 z m -130.9375,4.4317 54.81055,0.5195 -0.0977,17.5781 -16.30468,-0.1953 -0.49414,88.3809 -23.20313,-0.1289 0.49414,-88.3809 -15.30469,-0.1953 0.0996,-17.5781 z m 119.67383,20.3945 -11.24219,43.8808 29.8418,-2.5781 -18.59961,-41.3027 z"
       id="path5191" />
    <g
       transform="translate(-565.78014,73.403463)"
       id="g16491">
      <path
         inkscape:connector-curvature="0"
         style="fill:#f5d9a1"
         d="m 92.300781,-209.7207 -54.044922,36.31836 148.820311,0 43.36328,-35.91407 -138.138669,-0.40429 z m 147.283199,26.74218 -44,38.64454 -0.45898,0 c 1.44077,2.5996 2.25,5.50434 2.25,8.56054 0,1.5067 -0.55974,1.72332 -0.93164,3.13672 l 45.13086,-40.00976 c 0.77719,-1.2909 1.24414,-2.70469 1.24414,-4.24219 0,-2.5665 -1.11464,-4.42198 -3.08594,-5.98438 -0.0461,-0.0364 -0.10104,-0.0695 -0.14844,-0.10547 z m -9.45117,27.07032 -40.32422,35.85742 c -0.0339,0.034 -0.0677,0.0617 -0.10156,0.0957 4.68765,3.6642 7.66797,8.94257 7.66797,14.79297 0,1.5066 -0.38005,1.90104 -0.75195,3.31445 l 44.95117,-40.1875 c 0.77719,-1.29091 1.24414,-2.70468 1.24414,-4.24218 0,-2.5665 -1.1505,-4.37788 -3.08594,-5.98438 -3.16749,-2.6293 -8.03496,-3.35518 -9.59961,-3.64648 z m -182.562498,11.57422 c -4.048719,1.2507 -6.845703,4.55124 -6.845703,8.56054 0,5.1238 4.55887,9.07032 10.47461,9.07032 l 38.699219,0 c 5.915739,0 10.472652,-3.94652 10.472652,-9.07032 0,-4.0093 -2.795536,-7.30984 -6.843746,-8.56054 l -45.957032,0 z m 63.093748,0 c 1.05032,1.8932 1.7856,3.9379 2.09766,6.0957 0.31215,-2.1577 1.04714,-4.2025 2.09766,-6.0957 l -4.19532,0 z m 21.33399,0 c -4.04821,1.2507 -6.84375,4.55124 -6.84375,8.56054 0,5.1238 4.55692,9.07032 10.47265,9.07032 l 38.69922,0 c 5.91574,0 10.47266,-3.94652 10.47266,-9.07032 0,-4.0093 -2.79554,-7.30984 -6.84375,-8.56054 l -45.95703,0 z m -19.23633,11.02343 c -0.74151,5.1249 -3.75757,9.65972 -8.14063,12.82422 4.38816,3.1683 7.40744,7.7097 8.14453,12.8418 0.74657,-5.1228 3.76448,-9.66439 8.14649,-12.83399 -4.38783,-3.1647 -7.40844,-7.70363 -8.15039,-12.83203 z m 117.36328,8.01367 -39.24414,34.875005 c -0.38437,0.38589 -0.78233,0.735349 -1.18555,1.068359 4.69461,3.66459 7.67969,8.947375 7.67969,14.802735 0,1.50662 -0.38005,2.08083 -0.75195,3.49414 l 44.95117,-40.367189 c 0.77719,-1.2908 1.24414,-2.70479 1.24414,-4.24219 0,-2.5666 -1.1505,-4.37787 -3.08594,-5.98437 -3.17172,-2.6328 -8.04959,-3.35588 -9.60742,-3.64649 z m -178.925781,11.02735 c -5.91574,0 -10.47461,3.94856 -10.47461,9.07226 0,5.12374 4.55887,9.105473 10.47461,9.105473 l 38.699219,0 c 5.915739,0 10.472652,-3.981733 10.472652,-9.105473 0,-5.1237 -4.556913,-9.07226 -10.472652,-9.07226 l -38.699219,0 z m 84.427731,0 c -5.91567,0 -10.47265,3.98362 -10.47265,9.10742 0,5.1237 4.55692,9.070313 10.47265,9.070313 l 38.69922,0 c 5.91574,0 10.47266,-3.946613 10.47266,-9.070313 0,-5.1238 -4.55692,-9.10742 -10.47266,-9.10742 l -38.69922,0 z m -22.86718,11.55469 c -0.74679,5.122466 -3.76456,9.662887 -8.14649,12.832028 4.39301,3.16849 7.41475,7.713979 8.15234,12.849609 0.74631,-5.12326 3.76418,-9.664164 8.14649,-12.833985 -4.3923,-3.16788 -7.41427,-7.712876 -8.15234,-12.847652 z m 116.29101,8.986324 -38.25976,34.007813 c -0.5919,0.59424 -1.20584,1.113921 -1.83985,1.582031 5.13218,3.67331 8.42383,9.221199 8.42383,15.386719 0,1.21446 -0.13703,1.15109 -0.38281,2.306641 l 45.16992,-39.207032 c 1.01191,-1.89888 1.14811,-2.764293 1.10351,-4.214844 -0.0789,-2.56531 -1.59776,-4.377814 -3.5332,-5.984374 -3.35674,-2.786341 -9.32778,-3.588834 -10.68164,-3.876954 z M 51.199219,-83.658203 c -5.91574,0 -10.47461,3.946582 -10.47461,9.070312 0,5.12373 4.55887,9.072266 10.47461,9.072266 l 38.699219,0 c 5.915739,0 10.472652,-3.948546 10.472652,-9.072266 0,-5.12372 -4.556913,-9.070312 -10.472652,-9.070312 l -38.699219,0 z m 84.427731,0 c -5.91567,0 -10.47265,3.983702 -10.47265,9.107422 0,5.12373 4.55692,9.070312 10.47265,9.070312 l 38.69922,0 c 5.91574,0 10.47266,-3.946582 10.47266,-9.070312 0,-5.12372 -4.55692,-9.107422 -10.47266,-9.107422 l -38.69922,0 z m -22.86718,11.554687 c -0.79525,5.45485 -4.17908,10.234486 -9.0293,13.416016 4.86099,3.18877 8.24989,7.983045 9.03515,13.453125 0.79591,-5.46141 4.18585,-10.247747 9.04493,-13.429687 -4.86903,-3.179381 -8.26412,-7.966664 -9.05078,-13.439454 z m 134.56445,2.658204 -55.73828,49.865234 0,29.667969 55.95703,-50.173829 -0.21875,-29.359374 z M 51.199219,-51.859375 c -5.91574,0 -10.47461,3.948536 -10.47461,9.072266 0,5.12373 4.55887,9.070312 10.47461,9.070312 l 38.699219,0 c 5.915739,0 10.472652,-3.946592 10.472652,-9.070312 0,-5.12372 -4.556913,-9.072266 -10.472652,-9.072266 l -38.699219,0 z m 84.427731,0 c -5.91567,0 -10.47265,3.983702 -10.47265,9.107422 0,5.12373 4.55692,9.070312 10.47265,9.070312 l 38.69922,0 c 5.91574,0 10.47266,-3.946582 10.47266,-9.070312 0,-5.12372 -4.55692,-9.107422 -10.47266,-9.107422 l -38.69922,0 z m -22.86914,11.5625 c -0.78276,5.35177 -4.05398,10.056888 -8.75976,13.236328 l 17.50976,0 c -4.70566,-3.17746 -7.97481,-7.882868 -8.75,-13.236328 z m -79.57031,21.501953 0,32.222656 0.05078,0 0,0.03516 148.81055,0 0,-32.222657 -0.0508,0 0,-0.03516 -148.810551,0 z m 629.22266,423.716802 158.09375,211 14.84375,-11.4375 -102.9375,-143.5625 169.875,92 14.78125,-11.40626 L 662.41016,404.92188 z M 641,424.66602 607.66602,490.04688 c 5.8759,7.12962 14.23767,10.70497 23.39257,13.15039 L 641,424.66602 z m 2.78125,0.82421 2.37891,80.18165 c 7.5649,0.10252 14.53209,-1.99405 20.68359,-7.07422 l -23.0625,-73.10743 z m 120.12891,60.93165 85.84375,106.9375 41.8125,-32.21876 -127.65625,-74.71874 z m 142.64843,156.64648 1.38477,128.08984 38.69726,0 -40.08203,-128.08984 z m 13.36524,12.72656 41.39258,115.36328 33.36523,0 -74.75781,-115.36328 z m -22.96289,5.3457 -36.39453,110.08008 31.0625,0 5.33203,-110.08008 z"
         transform="translate(506.49524,249.45406)"
         id="path360-4" />
    </g>
  </g>
</svg>
